<svg xmlns="http://www.w3.org/2000/svg" xmlns:xlink="http://www.w3.org/1999/xlink" width="103" height="104" viewBox="0 0 103 104" fill="none">
<path d="M51.4992 22.393C67.6921 22.393 80.8233 35.6516 80.8233 52C80.8233 68.3484 67.6921 81.607 51.4992 81.607C46.0031 81.607 40.8631 80.078 36.4653 77.4206C44.5564 59.842 58.8071 44.9634 72.3928 35.5272C70.5522 36.0611 68.2465 36.4692 66.4195 36.7028L63.9487 34.6459C57.6906 36.2705 45.173 37.9238 44.3746 34.0984C43.5763 30.2729 49.3147 28.4102 55.335 27.4213L52.3885 25.0171C44.5958 26.4141 40.3071 30.4307 42.4734 35.2223C45.0321 40.8862 54.0867 38.9583 60.3599 38.3743C51.4083 41.9631 28.0076 43.7712 36.0245 30.2911C28.1409 36.9212 32.6068 41.819 39.283 43.3586C44.5307 44.569 53.0975 42.5941 58.9162 40.9044C49.9677 44.2293 41.1933 47.8606 36.0245 52.3838L36.0245 56.7082C42.4961 50.3997 50.6251 45.6748 58.8617 42.1952C50.1222 47.1067 42.2553 52.5157 36.0245 59.2322L36.0245 65.0265C42.1144 56.8174 51.0039 48.5295 58.9268 43.5892C51.2099 50.151 42.581 58.6649 36.0245 68.2058L36.0245 77.149C27.7122 71.9221 22.1782 62.6133 22.1782 52C22.1782 35.6516 35.3094 22.393 51.4992 22.393ZM47.6559 66.416L47.6559 67.8372L48.5103 67.8372L48.5103 73.1932L49.9646 73.1932L49.9646 66.416L47.6559 66.416ZM54.3594 71.6354L53.6216 73.1932L55.2138 73.1932C55.844 71.8538 56.2272 71.0059 56.3621 70.6525C56.4984 70.299 56.6105 69.9259 56.7014 69.5346C56.7878 69.1402 56.8332 68.8125 56.8332 68.5486C56.8332 67.8403 56.6378 67.2775 56.2469 66.8574C55.8561 66.4387 55.3335 66.2279 54.6805 66.2279C54.0412 66.2279 53.5247 66.4433 53.1293 66.8771C52.7369 67.3109 52.54 67.8827 52.54 68.5896C52.54 69.2282 52.6915 69.7439 52.9929 70.1352C53.2974 70.525 53.6958 70.7207 54.1882 70.7207C54.3594 70.7207 54.5609 70.6858 54.7926 70.6145L54.3594 71.6354ZM55.3713 68.5243C55.3713 68.2286 55.3092 67.9935 55.188 67.8145C55.0638 67.637 54.9017 67.5475 54.7002 67.5475C54.4972 67.5475 54.3245 67.6385 54.1882 67.816C54.0518 67.9965 53.9822 68.2225 53.9822 68.4925C53.9822 68.811 54.0473 69.0643 54.1761 69.2509C54.3048 69.439 54.476 69.5346 54.6911 69.5346C54.8775 69.5346 55.0335 69.4344 55.1683 69.2388C55.3032 69.0416 55.3713 68.805 55.3713 68.5243ZM60.1842 66.416L58.2027 70.742L58.2027 71.8432L60.3554 71.8432L60.3554 73.1932L61.7461 73.1932L61.7461 71.8432L62.2702 71.8432L62.2702 70.6145L61.7461 70.6145L61.7461 66.416L60.1842 66.416ZM60.3342 68.4637L59.3601 70.6145L60.3554 70.6145L60.3554 68.4637L60.3342 68.4637ZM65.7439 66.2385L65.7242 66.2385C65.0319 66.2385 64.4895 66.5449 64.1048 67.1577C63.7215 67.769 63.5291 68.6351 63.5291 69.753C63.5291 71.0241 63.7276 71.9448 64.129 72.5151C64.5289 73.0855 65.0667 73.3721 65.7439 73.3721C66.4589 73.3721 67.0073 73.0673 67.3906 72.456C67.7754 71.8492 67.9663 70.9695 67.9663 69.8228C67.9663 68.6457 67.7784 67.7523 67.4012 67.1471C67.024 66.5403 66.4726 66.2385 65.7439 66.2385ZM64.9895 69.7408C64.9895 71.1894 65.2379 71.9145 65.7348 71.9145C66.0014 71.9145 66.1953 71.7522 66.3135 71.4351C66.4362 71.1136 66.4938 70.607 66.4938 69.9077C66.4938 69.1402 66.4362 68.5805 66.3135 68.2301C66.1953 67.8812 65.9984 67.7053 65.7242 67.7053C65.2364 67.7053 64.9895 68.3848 64.9895 69.7408ZM44.1307 26.3929C32.0963 30.5399 36.0245 40.0474 45.7017 39.9351C40.7055 38.9856 34.914 32.5527 44.1307 26.3929ZM51.4992 0C23.0629 0 0 23.2864 0 52C0 80.7136 23.0629 104 51.4992 104C79.9355 104 103 80.7136 103 52C103 23.2864 79.9386 0 51.4992 0ZM51.4992 1.92334C24.1143 1.92334 1.90424 24.3497 1.90424 52C1.90424 79.6503 24.1143 102.077 51.4992 102.077C78.8842 102.077 101.094 79.6518 101.094 52C101.094 24.3482 78.8857 1.92334 51.4992 1.92334ZM27.6758 26.9875L27.794 26.86C27.7773 26.8145 27.7319 26.6962 27.7001 26.6659C27.6485 26.5279 27.5425 26.4505 27.4213 26.3352C27.2335 26.2776 27.0259 26.3276 26.835 26.3337C26.7987 26.3352 26.7623 26.3367 26.7275 26.3382C26.5669 26.3428 26.4366 26.4702 26.2882 26.4748C26.2336 26.5309 25.814 26.5931 25.8488 26.6902C25.7186 26.8343 25.5852 26.9753 25.4534 27.1179C25.4019 27.1725 25.4141 26.9192 25.4262 26.8813C25.4216 26.7448 25.4125 26.5445 25.4504 26.4186C25.4428 26.3959 25.4398 26.3337 25.4474 26.3094C25.4868 26.267 25.4322 26.0273 25.4307 25.9499C25.4247 25.771 25.2898 25.7406 25.1762 25.6329C25.0581 25.5207 24.8399 25.6299 24.693 25.6344C24.6218 25.7103 24.3915 25.6633 24.3067 25.7543C24.2385 25.7346 23.9416 25.9939 23.9037 26.0334C23.8492 26.0015 23.8052 25.9681 23.7598 25.9348C23.7265 25.8438 23.8673 25.3902 23.9567 25.3872C24.0855 25.2492 24.3021 25.1718 24.2961 24.9822C24.2915 24.8305 24.3854 24.7122 24.2536 24.5878C24.2203 24.4983 24.2037 24.5499 24.1067 24.5529C23.9779 24.6015 23.9476 24.2632 23.9719 24.1783C23.9643 23.9538 23.9234 23.7232 23.9173 23.5048C23.9022 23.4912 23.8749 23.3835 23.8734 23.3577C23.8704 23.2621 23.8128 22.8814 23.7537 22.8238C23.6946 22.6615 23.7098 22.3338 23.5871 22.2185C23.5841 22.1184 23.4129 21.8985 23.2947 21.9015C23.2114 21.8242 22.9463 21.7711 22.8266 21.7741C22.7403 21.6922 22.3615 21.7969 22.2979 21.8651C22.2388 21.8484 21.9661 21.9986 21.9267 22.0411C21.8162 22.0441 21.701 22.3065 21.5647 22.3581C21.4253 22.5098 21.2829 22.622 21.1345 22.7813C20.9724 22.842 20.9254 22.5553 20.8572 22.4885C20.7769 22.4142 20.8587 22.264 20.9209 22.1958C20.8906 22.1139 21.3647 21.6073 21.4314 21.5344C21.5071 21.4525 22.1525 20.8049 22.2297 20.8276C22.3237 20.7245 22.613 20.5788 22.7403 20.5743C22.8539 20.4514 23.1553 20.4924 23.2841 20.3544C23.378 20.2527 23.5841 20.2558 23.6689 20.1647C23.8189 20.1587 24.0158 19.8993 23.8916 19.7825C23.8158 19.7112 23.6325 19.6081 23.5295 19.6111C23.3886 19.6157 23.2356 19.5519 23.0978 19.5565C22.8842 19.4928 22.6554 19.6945 22.4433 19.7021C22.3964 19.7522 22.0828 19.9145 22.0055 19.9175C21.9055 20.0267 21.748 20.0828 21.6435 20.1951C21.5192 20.1996 21.3905 20.4499 21.2572 20.4985L20.4497 21.3676C20.4209 21.4662 20.2679 21.6801 20.1573 21.6831C20.0983 21.627 19.7483 21.7271 19.7453 21.6467C19.6559 21.5617 19.7271 21.539 19.5665 21.5451C19.4302 21.4146 19.5559 20.996 19.6665 20.8761C19.7498 20.7866 19.8301 20.4514 19.8256 20.3286C19.9013 20.2482 19.8483 20.1147 19.8756 20.0206C19.9165 19.9782 19.8801 19.643 19.8422 19.6081C19.721 19.4928 19.615 19.2744 19.4559 19.2804C19.3969 19.2243 18.9666 19.2425 18.8742 19.2455C18.797 19.1727 18.6606 19.2562 18.5864 19.2592C18.4925 19.2304 18.3485 19.4094 18.2349 19.4139C18.1561 19.3896 18.091 19.4958 18.0425 19.5474C18.0198 19.5732 17.5472 19.7764 17.8017 19.7673C17.8562 19.7658 17.9577 19.7431 17.9971 19.781C18.0925 19.778 18.1062 19.8295 18.1092 19.916C18.0895 19.9767 18.0501 20.2846 18.0683 20.3361C18.0728 20.4575 17.9683 20.5728 17.9713 20.6941C17.9365 20.732 17.8123 21.0855 17.8259 21.1188C17.7729 21.1734 17.5032 21.8014 17.5108 21.8226C17.3729 21.9713 17.3411 22.1897 17.2033 22.3368C17.0957 22.4536 17.0018 22.7767 16.8276 22.7828C16.7806 22.7388 16.7594 22.6417 16.6821 22.6432C16.5276 22.4976 16.6746 22.8768 16.6185 22.9375C16.6246 23.1529 16.6412 23.0619 16.7988 23.1089C16.9882 23.2879 17.6683 23.1893 17.9441 23.1802C18.0728 23.1772 18.0865 23.0968 18.1895 23.0589C18.3198 22.9178 18.4849 22.8526 18.6227 22.7054C18.7697 22.6493 18.8818 22.4658 18.9863 22.352C19.1136 22.217 19.2105 21.8302 19.3938 21.762C19.3544 21.8939 19.8089 22.1306 19.6604 22.2913C19.618 22.3353 19.2954 22.8996 19.309 22.933C19.2332 23.0149 19.206 23.1165 19.1363 23.1908C19.1181 23.25 19.0424 23.4032 19.003 23.4472C18.8909 23.567 18.8591 23.7839 18.7485 23.9037C18.7091 23.9462 18.4182 24.4407 18.4288 24.471C18.3864 24.5181 18.091 25.005 18.1062 25.0444C18.0501 25.1051 17.832 25.463 17.8577 25.5343C17.7653 25.636 17.785 25.7558 17.688 25.862C17.6638 25.9408 17.3563 26.3671 17.3684 26.3989L17.1275 26.6583C17.0669 26.86 16.8276 27.0496 16.6806 27.2104C16.6034 27.2135 16.2398 27.5578 16.3731 27.6837C16.3261 27.8399 16.4867 27.8187 16.5731 27.8445C16.767 27.8384 16.9488 27.8672 17.1442 27.8611C17.2139 27.8581 17.2669 27.984 17.3245 27.9233C17.6214 27.9142 17.9289 27.8323 18.1334 27.6124C18.2395 27.4971 18.247 27.4683 18.2864 27.3363C18.3425 27.2741 18.3092 27.1786 18.3334 27.1027C18.3152 27.0557 18.3713 26.6537 18.4046 26.6173C18.3879 26.5718 18.747 25.8711 18.8045 25.8104C18.8394 25.7725 19.0121 25.3766 19.0605 25.4221C19.0393 25.4903 19.1075 25.4661 19.1363 25.4934C19.2757 25.4888 19.4696 25.8468 19.5756 25.9484C19.665 26.0334 19.7574 26.0834 19.8513 26.1714C19.9998 26.3125 20.2831 26.3307 20.4315 26.4717C20.5724 26.4672 20.8451 26.7523 20.9724 26.7068C21.0526 26.7827 21.5495 26.8161 21.6677 26.7721C21.7843 26.769 21.7131 26.854 21.7798 26.9162C21.7647 26.9632 21.8934 27.13 21.9298 27.1634C22.0086 27.2392 21.9434 27.5578 22.1176 27.5517C22.2085 27.6382 22.4464 27.532 22.5236 27.4501C22.5509 27.4198 22.5706 27.4395 22.5963 27.4137C22.7554 27.4076 22.6797 27.2832 22.7509 27.2059C22.713 27.1027 23.0857 26.7326 23.1432 26.6704C23.2962 26.5051 23.2841 26.8085 23.2871 26.8828C23.375 26.9662 23.0917 27.2317 23.125 27.3212C23.0796 27.3712 22.9387 27.5987 22.9417 27.664C22.866 27.7444 22.4706 28.2404 22.5039 28.3283C22.3873 28.4527 22.3661 28.5877 22.2479 28.7166C22.151 28.7197 22.1585 28.8107 22.1101 28.8638C22.0646 29.0139 21.9661 29.017 21.8692 29.1231C21.7419 29.1262 21.5314 29.2612 21.6783 29.4007C21.6813 29.5084 21.8586 29.5054 21.9116 29.5554C22.0722 29.5494 22.2449 29.5828 22.3661 29.698C22.5342 29.692 22.7039 29.6995 22.8205 29.5752C22.9463 29.5706 23.0508 29.4387 23.0811 29.3355C23.1856 29.2233 23.0357 28.976 23.0841 28.8122C23.1341 28.7606 23.1341 28.6878 23.1872 28.6317C23.1826 28.6211 23.3811 28.0856 23.3977 28.0674C23.3644 27.9749 23.6962 27.6351 23.7386 27.5881C23.7825 27.5411 23.9613 27.3924 23.9658 27.5259C23.9719 27.7079 23.9976 27.8885 24.0037 28.0781C23.9234 28.1645 23.8037 28.2601 23.8522 28.3936C23.7295 28.5255 23.4947 28.4193 23.5992 28.7075C23.4674 28.8486 23.8446 29.0079 23.934 29.0898C24.0325 29.1853 24.1567 29.2354 24.2582 29.331C24.4551 29.516 24.9096 29.4538 25.1853 29.4447C25.2671 29.3552 25.3413 29.2126 25.3747 29.0974C25.4898 28.973 25.561 28.8562 25.6792 28.7288C25.9367 28.4527 26.2048 28.204 26.4609 27.9279C26.5321 27.9021 26.5608 27.8172 26.632 27.8141C26.7714 27.6655 26.9471 27.5062 27.0971 27.3454C27.2047 27.2286 27.3698 27.2044 27.4652 27.1027C27.5425 27.0997 27.5955 26.989 27.6758 26.9875ZM21.7813 26.3549C21.6207 26.4141 21.592 26.1684 21.4374 26.1729C21.3874 26.1259 21.0845 26.0227 21.0178 26.0243C20.9118 25.9242 20.7179 26.0167 20.6239 25.9287C20.6209 25.818 20.4906 25.818 20.5845 25.7179C20.5618 25.6602 20.6739 25.5935 20.6118 25.5343C20.6058 25.3129 20.5467 25.1202 20.6103 24.9033C20.6603 24.8518 20.7769 24.5757 20.7739 24.5044C20.839 24.4346 20.7709 24.1252 20.9451 24.1768C21.1541 24.1707 21.2102 24.3906 21.3465 24.5196C21.4541 24.6212 21.492 24.6333 21.495 24.7653C21.4571 24.8988 21.4132 24.9686 21.3102 25.0778C21.245 25.2977 20.9845 25.4008 21.0799 25.6617C21.1254 25.7057 21.089 25.7163 21.1754 25.7133C21.3056 25.8377 21.5101 25.6769 21.6101 25.5707C21.7268 25.5677 21.698 25.4039 21.7631 25.3341C21.9737 25.1081 21.8843 25.5222 21.9192 25.6147C21.8768 25.7543 22.0176 26.0986 21.9328 26.1911C21.8813 26.2457 21.8313 26.3003 21.7813 26.3549ZM22.7206 24.5696C22.7887 24.4938 22.7569 24.0296 22.7539 23.9022C22.8054 23.8446 22.7145 23.8006 22.7327 23.7399C22.563 23.5791 22.7554 23.2348 22.6403 23.1271C22.6372 23.0573 22.5145 22.5174 22.3903 22.6508C22.2222 22.6569 22.1934 22.6493 22.0767 22.7752C22.0313 22.7616 21.6738 23.209 21.5814 23.3091C21.5071 23.388 21.5086 23.5564 21.5859 23.6292C21.5617 23.7111 21.9707 24.0327 21.9737 24.1388C22.0707 24.2314 22.2009 24.1707 22.3358 24.1661C22.4782 24.3011 22.5736 24.4301 22.7206 24.5696ZM19.7635 25.1126C19.7089 25.0611 19.6029 25.2006 19.5544 25.1551C19.4423 25.1582 19.2484 25.1764 19.2438 25.0414C19.1014 24.9079 19.4499 24.7729 19.4453 24.6409C19.5574 24.5196 19.5574 24.336 19.6665 24.2192C19.6514 24.1752 19.9286 23.6717 19.9831 23.6125C19.9816 23.5427 20.1558 23.2439 20.2058 23.1908C20.224 23.1726 20.2497 23.0331 20.3043 23.0846C20.4633 23.2333 20.4724 23.2682 20.4785 23.4881C20.4649 23.5367 20.5058 23.57 20.4633 23.6171C20.2573 23.837 20.2573 24.1737 20.0619 24.3831C20.0483 24.4286 20.0664 24.421 20.0316 24.4589C19.9877 24.6 19.7635 24.9139 19.815 25.058L19.7635 25.1126ZM32.8962 22.1715C32.828 22.0502 33.0068 22.1412 32.9325 22.1821C32.9189 22.1563 32.9204 22.1579 32.8962 22.1715ZM33.4203 22.4339L33.487 22.4536C33.5718 22.6099 33.6854 22.5386 33.8082 22.622C33.9854 22.6721 34.0642 22.6099 34.1975 22.4825C34.3732 22.3839 34.5414 22.3065 34.6459 22.1488C34.8504 22.035 34.9625 21.5253 35.0292 21.2857C35.0655 21.1598 35.1004 21.0324 35.1352 20.9065C35.1655 20.8033 35.167 20.6213 35.2246 20.5364C35.2897 20.3028 35.2549 20.0995 35.3185 19.8781C35.3109 19.7385 35.417 19.696 35.5261 19.7279C35.6003 19.6854 36.0517 19.6566 36.1335 19.6794C36.2184 19.6323 36.2911 19.6703 36.385 19.6187C36.5077 19.6536 36.6486 19.5246 36.7895 19.5656C37.0122 19.6278 37.2061 19.5383 37.4061 19.423C37.5939 19.3184 37.8726 18.971 38.0696 18.9619C38.0984 18.9452 38.1287 18.9285 38.159 18.9103C38.2544 18.8572 38.5786 18.6616 38.6028 18.5721C38.7074 18.5129 38.7831 18.3233 38.8482 18.2262L39.0452 18.114C39.1073 17.8941 39.1694 17.7454 38.9119 17.6711C38.8149 17.4966 38.4013 17.3768 38.2317 17.4724C38.0787 17.4284 37.7393 17.4875 37.5909 17.571C37.3848 17.6862 37.1561 17.6726 36.9592 17.7848C36.9092 17.7712 36.6986 17.8425 36.6547 17.8683C36.5168 17.9471 36.3123 17.9183 36.179 17.9926C36.0139 17.9456 35.823 18.2293 35.6791 18.1883C35.6321 18.2141 35.364 18.2899 35.3337 18.2384C35.1625 18.1883 35.2852 17.8941 35.22 17.7757C35.2413 17.706 35.1155 17.4284 35.067 17.3434C34.8959 17.2251 35.1231 17.1599 35.2261 17.1023C35.3988 17.0037 35.7442 16.8292 35.7987 16.6351C35.8381 16.4895 35.7866 16.3909 35.6397 16.3499C35.5791 16.2407 35.2261 16.2665 35.1185 16.2362C34.9368 16.1846 34.7853 16.0845 34.602 16.0329C34.4474 15.9889 34.3717 15.8539 34.2187 15.8099C34.1445 15.6764 33.9172 15.7811 33.8263 15.8312C33.74 15.8069 33.893 15.3549 33.9733 15.3109C34.0248 15.1258 33.6491 15.2608 33.5855 15.2972C33.5067 15.3412 33.1567 15.6446 33.1598 15.7128C33.0613 15.769 32.975 15.9055 32.8841 15.9571C32.8644 16.0238 32.4235 15.8827 32.3387 15.8585C32.2433 15.6886 32.831 15.3928 32.9144 15.2699C33.1325 15.1471 33.3188 14.9848 33.5476 14.8558C33.5446 14.8043 33.7945 14.6526 33.8521 14.6192C34.0127 14.6662 34.2475 14.4326 34.4111 14.5434C34.4384 14.5525 34.6065 14.5767 34.6262 14.5646C34.8277 14.6222 34.8034 15.2229 34.8095 15.364C34.8125 15.37 34.9716 15.3625 35.0125 15.3609C35.1731 15.4065 35.2852 15.5263 35.4549 15.4307C35.5412 15.3822 35.6579 15.3973 35.7094 15.3185C35.7806 15.279 36.0457 15.0955 36.0654 15.0303C36.2229 14.9408 36.3835 14.8179 36.4305 14.648C36.4471 14.5889 36.5335 14.4084 36.5001 14.3462C36.5607 14.1262 36.282 14.0671 36.2078 13.9351C36.1169 13.7683 36.0017 13.7637 35.823 13.7122C35.7381 13.653 35.2912 13.5514 35.2125 13.5954C35.1292 13.5711 34.7777 13.609 34.6989 13.653C34.5898 13.6211 34.455 13.7531 34.3611 13.7258C34.1036 13.8699 33.9127 14.0656 33.6748 14.2006C33.5733 14.3507 33.2067 14.4069 33.1689 14.5434C33.0871 14.5889 32.519 15.0045 32.5205 15.0288L32.3872 15.1046C32.3508 15.1243 32.266 15.2199 32.2675 15.2593C32.1342 15.3352 31.9054 15.7295 31.7236 15.678C31.6918 15.6962 31.6464 15.7098 31.6479 15.7538C31.6661 15.7887 31.5858 15.9646 31.5464 15.9859C31.4949 16.0147 31.4434 16.045 31.3904 16.0739C31.351 16.0966 31.0344 16.4045 31.0344 16.4182C30.9465 16.4697 30.492 16.8808 30.4951 16.9551C30.4602 16.9749 30.2375 17.1933 30.2375 17.2206C30.1118 17.2919 29.7664 17.6362 29.7315 17.7621C29.6982 17.7818 29.6482 17.8319 29.6497 17.8713C29.5649 17.9214 29.2377 18.1686 29.1953 18.0958C29.1559 18.023 29.2286 17.8971 29.1847 17.8167C29.1801 17.7424 29.2574 17.2813 29.2922 17.2282C29.2786 17.2024 29.2316 16.9733 29.2422 16.9369C29.1665 16.8004 29.2256 16.5941 29.1513 16.4606C29.1332 16.4258 29.171 15.9328 29.2089 15.8782C29.1771 15.819 29.2241 15.7037 29.1831 15.6294C29.1347 15.5445 29.1786 15.3518 29.1377 15.279C29.1316 15.1349 29.0514 14.9211 29.1453 14.7785C29.1816 14.6496 29.1816 14.4296 29.2968 14.6374C29.3907 14.6647 29.4695 14.7224 29.5649 14.7497C29.6255 14.8574 29.8739 14.5115 29.9103 14.4903C29.9573 14.3219 30.1239 14.7148 30.1769 14.8119C30.0951 14.9317 30.5723 15.1061 30.3466 15.2335C30.3133 15.3579 30.1497 15.6491 30.2072 15.7523C30.2663 15.8569 30.236 15.9161 30.2936 16.0223C30.4481 16.0678 30.6253 16.0117 30.7662 15.9328C30.8768 15.9631 31.154 15.6567 31.248 15.6036C31.2449 15.5414 31.8797 15.006 31.9842 14.9484C32.0827 14.8922 32.1766 14.6147 32.3099 14.6511C32.4205 14.5889 32.572 14.5676 32.6114 14.4266C32.6583 14.3993 32.6174 14.2794 32.5917 14.2294C32.5084 14.1733 32.166 14.0944 32.0842 14.1414C31.9751 14.1111 31.8464 14.3492 31.8494 14.4493C31.7449 14.604 31.6131 14.7497 31.4388 14.8483C31.3343 14.9074 31.1556 15.0576 31.0465 14.9833C31.0844 14.8513 31.0783 14.604 31.1525 14.4903C31.2404 14.4417 31.2904 13.9594 31.3707 13.8411C31.3995 13.741 31.4464 13.5847 31.501 13.5043C31.5403 13.3602 31.5964 13.2343 31.6388 13.0827C31.6282 12.8385 31.966 12.8112 32.1069 12.7292C32.1584 12.5503 32.4493 12.6489 32.5523 12.5912C32.5932 12.6018 32.5887 12.6352 32.6311 12.6337C32.7038 12.6549 32.8159 12.6974 32.7947 12.7732C32.7023 12.9113 32.7326 13.3026 32.6068 13.3739C32.5538 13.565 32.2796 13.7106 32.1039 13.8092C32.0963 13.8229 32.0948 13.832 32.0918 13.8411C31.863 13.97 32.2872 13.8608 32.3023 13.8653C32.3569 13.835 32.4463 13.8123 32.4841 13.882C32.5175 13.9382 32.778 13.8927 32.8492 13.8532C32.8477 13.832 33.2613 13.477 33.3113 13.4467C33.4158 13.3891 33.4628 13.1631 33.5324 13.0599C33.5249 12.8824 33.6415 12.7854 33.5461 12.6124C33.5779 12.4957 33.1598 12.0922 33.0689 12.0664C33.0204 11.9784 32.6811 11.9981 32.5993 12.0452C32.5129 12.0209 32.2084 12.0891 32.1266 12.1362C31.9463 12.0846 31.5191 12.6519 31.3722 12.3864C31.3419 12.388 31.3389 12.3819 31.3252 12.3576C31.1556 12.2439 31.0435 12.2211 30.8495 12.3303C30.9253 12.4653 31.0631 12.5472 31.0116 12.7353C30.9844 12.8294 30.6087 13.0493 30.4996 13.1115C30.4239 13.154 30.3557 13.2571 30.286 13.2965C30.2557 13.4027 30.0603 13.4315 30.036 13.5165C29.933 13.5756 29.8436 13.3542 29.7209 13.3193C29.5225 13.4315 29.8436 13.6894 29.624 13.8138C29.3604 14.0413 29.3952 13.8153 29.3013 13.6454C29.2543 13.5605 29.1907 13.5605 29.1407 13.4725C29.0044 13.2237 29.7664 12.9735 29.9845 12.8506C30.0103 12.8582 30.0163 12.8658 30.0391 12.8521C30.036 12.7747 30.3496 12.5533 30.4057 12.4699C30.5466 12.3895 30.695 12.3288 30.7783 12.2029C30.9147 12.1255 31.0162 11.9496 31.1677 11.8631C31.3207 11.7767 31.4737 11.6902 31.6267 11.6053C31.7888 11.5127 31.9251 11.4672 32.0796 11.3808C32.1705 11.4066 32.1221 11.3004 32.1569 11.2488C32.1312 10.7012 31.6328 11.1062 31.3752 11.2503C31.3146 11.2852 30.8995 11.5765 30.9011 11.6386C30.7844 11.7054 30.2481 12.0057 30.2527 12.0937C30.1042 12.1771 30.0542 12.3167 29.9255 12.3895C29.8921 12.5078 29.2377 12.8658 29.0832 12.9537C28.9332 13.0387 28.815 13.1373 28.6635 13.2222C28.5014 13.3147 28.4151 13.474 28.2469 13.5696C28.1894 13.653 27.7652 13.9109 27.7667 13.9609C27.7167 13.9882 27.7213 14.0185 27.6728 14.0459C27.5334 14.2537 27.2501 14.4235 27.0002 14.5055C26.8608 14.5843 26.7351 14.4554 26.6093 14.5267C26.6729 14.642 26.6911 14.7618 26.6972 14.8847C26.7972 15.0636 27.0714 15.0242 27.238 14.9317C27.3471 14.962 27.494 14.7527 27.5789 14.7057C27.5728 14.5752 28.003 14.4387 28.0424 14.3007C28.1621 14.2324 28.1863 14.108 28.256 14.0034C28.3787 13.9336 28.4757 13.8244 28.5832 13.7637C28.6575 13.785 28.6802 14.1141 28.6847 14.2021C28.6484 14.2521 28.5196 14.9484 28.5514 15.003C28.5014 15.0773 28.4454 15.543 28.4863 15.6143C28.4605 15.6537 28.4348 16.0921 28.453 16.1285C28.4302 16.1649 28.4015 16.6047 28.4227 16.6411C28.3939 16.6821 28.3575 17.2661 28.3772 17.304C28.3681 17.3434 28.356 17.4284 28.359 17.4678C28.3984 17.5421 28.3318 17.7136 28.3363 17.8C28.2606 18.0715 28.3257 18.4189 28.25 18.6874C28.2924 18.7632 28.2197 18.9665 28.2242 19.0529C28.2681 19.1333 28.1863 19.4033 28.1924 19.511C28.2303 19.5777 28.1682 19.7613 28.1712 19.8417C28.1061 20.0737 28.1848 20.3225 28.1939 20.5561C28.2212 20.6046 28.2697 20.9398 28.2575 20.9823C28.3818 21.2083 28.662 21.451 28.9029 21.5208C29.0059 21.5496 29.0635 21.7817 29.1847 21.7134C29.1786 21.5663 29.474 21.4055 29.5816 21.3448C29.6967 21.2811 29.6664 21.1279 29.6134 21.0324C29.6119 21.0051 29.621 21.002 29.6073 20.9793C29.5679 20.905 29.4573 20.3589 29.4816 20.3225C29.4074 20.189 29.4573 19.9812 29.3846 19.8508C29.4043 19.7825 29.3452 19.4063 29.3104 19.3426C29.3028 19.1985 29.2513 18.792 29.4134 18.701C29.5301 18.7344 29.9815 18.2642 30.0103 18.164C30.0663 18.1322 30.0906 18.0306 30.1527 17.9957C30.1481 17.8941 30.3375 17.803 30.4239 17.7545C30.4542 17.8076 30.4057 17.8789 30.442 17.9441C30.3905 18.0199 30.5072 18.2763 30.5496 18.3537C30.5208 18.3961 30.6935 18.7875 30.6981 18.8785C30.7799 19.0271 30.8344 19.6081 30.9829 19.6505C31.0389 19.7522 31.1162 19.7871 31.204 19.8462C31.248 19.9266 31.4646 19.9357 31.56 19.963C31.5782 19.9539 31.6434 19.7992 31.6328 19.7795C31.6252 19.6263 31.5146 19.3017 31.3676 19.2016C31.3192 19.1136 31.2631 19.0696 31.2177 18.9907C31.0662 18.8861 31.0207 18.5736 30.9359 18.4234C30.8026 18.1838 30.6829 17.9092 30.5557 17.6802C30.5526 17.6165 30.5996 17.5088 30.6329 17.4602C30.6284 17.3768 30.8026 17.2312 30.8465 17.1645C30.9298 17.1159 31.0798 17.3632 31.1692 17.3889C31.2419 17.4087 31.3177 17.4936 31.401 17.4906C31.4464 17.574 32.3387 17.8622 32.4372 17.8076C32.5053 17.8258 32.5371 17.7545 32.5402 17.8364C32.5114 17.9411 32.4114 18.6024 32.2811 18.566C32.1933 18.5053 31.7645 18.7511 31.7706 18.8861C31.5918 18.9877 31.8554 19.2986 31.9312 19.4336C32.0675 19.4731 31.9994 19.5777 32.0054 19.6809C32.0812 19.8174 31.7797 20.1602 31.7873 20.3301C31.7721 20.3877 31.7252 20.4833 31.7282 20.5394C31.6979 20.6486 31.607 20.8625 31.5116 20.9171C31.4282 21.0415 31.4191 21.2462 31.3767 21.401C31.4116 21.4677 31.3237 21.5132 31.3267 21.5815C31.2767 21.7589 31.2601 21.762 31.357 21.9394C31.3419 21.9622 31.4843 22.167 31.5161 22.2246C31.5828 22.3429 31.6994 22.3551 31.763 22.4688C31.9251 22.5158 32.0781 22.6493 32.1402 22.4233C32.1675 22.3217 32.169 22.1397 32.2281 22.0532C32.1948 21.991 32.4205 21.4935 32.4538 21.3767C32.4887 21.3555 32.6674 20.7639 32.6432 20.7169C32.6371 20.6092 32.7447 20.4985 32.7962 20.4241C32.9341 20.3453 32.9235 20.0555 33.0113 19.9266C33.0083 19.8583 33.2492 19.7507 33.3067 19.7916C33.4355 19.7188 33.8218 19.7476 33.9733 19.7916C34.0354 19.7552 34.6444 19.7491 34.6974 19.8447C34.7913 19.8705 34.5702 20.2512 34.5762 20.3528C34.5338 20.3771 34.3732 20.9232 34.3762 20.9914C34.3581 21.0582 34.196 21.3251 34.149 21.3524C34.0581 21.4859 33.9642 21.721 33.8203 21.8014C33.6082 22.1184 33.2628 22.0881 32.9492 21.9986C32.9144 21.9349 32.7447 21.9137 32.6841 21.9485C32.625 21.9804 32.9189 22.0578 32.9371 22.0926C33.0113 22.1124 33.543 22.302 33.3688 22.399C33.384 22.4279 33.39 22.4263 33.4203 22.4339ZM33.0492 22.2929C33.0371 22.2701 33.0416 22.2656 33.0174 22.2792C32.9522 22.3156 33.3007 22.4779 33.2249 22.3384C33.1628 22.3202 33.0946 22.2671 33.0492 22.2929ZM30.5572 14.8285L30.5435 14.8043C30.5723 14.7042 30.4163 14.416 30.3633 14.3219C30.3011 14.2097 30.2299 14.0792 30.3617 14.0034C30.5208 13.9139 30.6253 13.7122 30.7829 13.6227C30.8677 13.5741 31.1147 13.1828 31.1283 13.4588C31.0995 13.4998 31.1192 13.5514 31.0753 13.5772C30.9935 13.8653 30.8692 14.1111 30.7874 14.4023C30.695 14.5419 30.7193 14.7375 30.5572 14.8285ZM34.2202 16.855C34.1778 16.8429 33.9112 16.9187 33.8657 16.9445C33.8475 16.9309 33.2431 17.0628 33.1961 17.0901C33.1295 17.0461 32.6356 17.0552 32.5659 17.0962C32.4538 17.1584 32.2751 17.166 32.1508 17.1311C32.0963 17.1614 31.451 16.9096 31.4131 16.8444C31.2055 16.7003 31.4085 16.7337 31.4479 16.5926C31.5994 16.5062 31.7176 16.1633 31.9039 16.2149L31.916 16.2392C32.0206 16.2695 31.9706 16.5183 32.0993 16.5122C32.1948 16.5395 32.3084 16.6578 32.4099 16.6002C32.6674 16.673 33.0522 16.2923 33.2901 16.1603C33.4431 16.2043 33.4385 16.2271 33.5946 16.1391C33.6158 16.1451 33.6264 16.1451 33.6461 16.133C33.7521 16.0723 34.1354 16.3317 34.1945 16.4394C34.2747 16.4606 34.4505 16.7018 34.3429 16.7625C34.2929 16.7913 34.2732 16.8262 34.2202 16.855ZM34.6504 18.3612C34.6383 18.3521 34.6277 18.3491 34.6201 18.3461C34.4308 18.4538 33.9369 18.5311 33.7324 18.472C33.64 18.4462 33.5946 18.4386 33.6233 18.3339C33.6173 18.2005 33.8309 18.0791 33.7506 17.935C33.7809 17.8288 33.6415 17.6787 33.7476 17.618C33.8051 17.5846 33.843 17.5952 33.8945 17.5664C33.9869 17.5922 34.4232 17.3783 34.4505 17.4284C34.7065 17.5012 34.8625 17.932 34.8004 18.158C34.7686 18.2035 34.8186 18.2338 34.7459 18.2763C34.7322 18.3279 34.6989 18.3339 34.6504 18.3612ZM29.98 11.4885C29.9148 11.4703 29.727 11.5112 29.6649 11.5476C29.5467 11.5522 29.3589 11.6644 29.2543 11.6341C29.1468 11.6948 28.7605 11.7752 28.6499 11.7433C28.5363 11.8085 28.3469 11.7084 28.256 11.76C28.1121 11.7661 27.6501 11.6659 27.5773 11.5355C27.5228 11.4976 27.3759 11.2427 27.4289 11.2109C27.5758 11.129 27.6682 11.1972 27.8212 11.1897C27.8758 11.1593 28.2651 11.2382 28.3333 11.2852C28.3742 11.261 28.7681 11.2261 28.8044 11.2503C28.8893 11.2018 29.2968 11.2124 29.318 11.1366C29.5361 11.0122 29.8906 10.9697 30.033 11.2276C30.0754 11.3019 30.0588 11.4445 29.98 11.4885ZM42.0295 17.6923C41.9068 17.6544 41.872 17.668 41.8447 17.5194C41.7781 17.4709 41.5705 17.4329 41.5554 17.3374C41.4493 17.2631 41.4175 17.1114 41.3948 16.984C41.1767 16.8292 41.5054 16.3378 41.4721 16.1421C41.4312 15.9009 41.6069 15.5854 41.563 15.3261C41.5493 15.2548 41.6054 14.7345 41.6614 14.6935C41.6236 14.4675 41.7508 14.1975 41.7099 13.9624C41.8296 13.5544 41.4993 13.1085 41.1933 12.8931C41.0736 12.8096 40.8267 12.35 40.9373 12.1877C40.8919 11.9284 41.4524 12.1559 41.563 12.2332L41.9371 12.1665C41.8962 11.9359 41.978 11.8373 41.9417 11.628C41.9296 11.5598 41.9568 11.1578 42.0083 11.1214C41.975 10.9379 42.0705 10.7558 42.0386 10.5784C42.0114 10.4252 42.072 9.46047 42.0523 9.44379C41.9099 9.34368 41.9402 9.59092 41.7947 9.61671C41.3433 9.6971 40.9827 9.75929 40.601 9.48929C40.4647 9.44834 40.3889 9.34368 40.2753 9.26329C39.9223 9.01301 40.7222 8.67476 40.8888 8.64442C40.8934 8.63077 41.3842 8.29555 41.416 8.28948C41.4281 8.25156 41.9886 7.82685 42.0477 7.81623C42.0523 7.80561 42.4931 7.4264 42.5128 7.42337C42.6204 7.26714 42.8294 7.15641 42.9476 6.98501C43.1279 6.72563 43.4793 6.84697 43.7126 6.67254C43.9701 6.62552 44.1444 6.93495 44.1777 7.12759C44.1974 7.23225 44.1065 7.63118 44.2231 7.71308C44.2489 7.85415 44.3686 8.27431 44.467 8.34257C44.5443 8.79459 45.0079 9.11919 45.0927 9.59699C45.1215 9.76687 45.3472 10.0975 45.4941 10.1415C45.5441 10.1764 45.5911 10.2159 45.6396 10.2507C45.7365 10.319 46.2864 10.2993 46.2486 10.0854C46.3122 9.99288 46.2698 9.22233 46.194 9.16773C46.1819 9.1025 46.1804 8.99329 46.0895 9.00997C45.7608 9.06761 45.1715 9.00997 45.1018 8.61257C45.129 8.60802 45.1821 8.63228 45.2078 8.64897C45.4699 8.60346 45.6547 8.69751 45.9213 8.65049C46.1834 8.72936 46.2592 8.37594 46.2274 8.18634C46.2546 8.09229 46.1243 7.21101 46.4879 7.46736C46.6864 7.60842 46.9636 7.76011 46.8712 8.07106C46.903 8.24549 46.5909 8.54886 46.9242 8.64897C46.9439 8.76728 47.3257 8.99481 47.0424 9.04638C46.8409 8.90228 46.7697 9.53025 46.7909 9.65615C46.797 9.68952 47.0742 9.2739 47.1196 9.2102C47.1923 9.1025 47.5771 8.61712 47.5605 8.51549C47.6241 8.29706 48.0649 8.0301 48.021 7.79044C48.0362 7.74039 48.1331 7.5432 48.127 7.50831C48.6406 6.7681 47.4317 7.13062 47.2469 7.00017C47.1575 7.01534 46.7182 6.88186 46.6833 6.99411C46.3591 7.05175 45.8517 7.19129 45.6653 7.45674C45.6153 7.46584 45.6244 7.51438 45.5714 7.52348C45.4169 7.74797 45.1624 7.67213 44.9639 7.53258C44.8639 7.46281 44.614 7.35966 44.7852 7.23073C44.8397 7.04871 45.4426 6.85304 45.632 6.81967C45.632 6.81815 46.0289 6.59366 46.0531 6.58911C46.4122 6.52541 46.6606 6.38282 47.0015 6.32215C47.2863 6.2721 47.5499 6.47838 47.8619 6.42378C48.021 6.39496 48.4437 6.39648 48.5664 6.48293C48.7542 6.44956 49.1133 6.6422 49.2314 6.80299C49.448 6.95619 49.5192 7.37331 49.4496 7.61297C49.4708 7.74494 49.0087 8.24094 48.9148 8.37291C48.6618 8.73846 48.3982 9.02363 48.1452 9.38767C47.9028 9.73805 47.8407 10.1461 47.6014 10.4889C47.4802 10.5799 47.2181 10.771 47.0409 10.6451C46.8894 10.6724 47.0242 11.3201 47.0424 11.4172C47.1211 11.4718 47.2529 11.3504 47.3363 11.3353C47.6862 11.2746 48.0892 11.0395 48.43 11.1411C48.9148 11.0562 49.3223 11.7979 49.0481 12.1923C49.0648 12.2909 48.5694 13.0493 48.4573 13.069C48.1149 13.3254 47.8922 13.6591 47.6468 14.0125C47.5953 14.0868 47.3757 14.2188 47.6074 14.2248C47.8786 14.1763 48.3452 14.2628 48.5164 14.014C48.7285 13.9761 48.9042 14.1005 49.0936 14.0671C49.5299 13.9897 50.1752 14.8119 50.057 15.2123C50.0767 15.323 49.9525 15.543 49.8374 15.5627C49.7722 15.6112 49.6768 15.6234 49.6086 15.5748C49.2026 15.6476 48.8239 15.587 48.3967 15.6628C48.1982 15.6977 47.156 15.8418 47.1196 15.9677C46.9484 15.998 46.3849 16.2119 46.2243 16.0981C45.9668 15.9146 45.6608 15.64 45.6062 15.3306C45.5138 15.2654 45.4078 14.9544 45.3866 14.8316C45.3684 14.7254 45.3442 14.5858 45.326 14.4812C45.679 14.419 45.7789 13.7577 46.1137 13.697C46.141 13.6075 46.9242 12.62 46.4258 12.708C46.2107 12.7459 46.0228 13.0402 45.8229 13.0766C45.7774 13.1449 45.5881 13.2738 45.5032 13.289C45.3563 13.3147 45.3048 13.4027 45.1684 13.4255C44.9064 13.4725 44.8049 13.5165 44.5988 13.3724C44.3958 13.4088 44.2398 12.9553 44.1292 13.3269C44.0353 13.4619 43.9505 13.4649 43.9838 13.6575C43.849 13.7577 43.4975 14.5297 43.5217 14.6662C43.4763 14.7011 43.2824 15.3458 43.293 15.408C43.2491 15.4413 43.0839 15.9768 43.0945 16.0375C43.0415 16.0769 43.0203 16.2892 42.9688 16.3636C42.8476 16.538 42.6658 16.7928 42.7022 17.0067C42.4689 17.1796 42.587 17.571 42.2704 17.6271C42.2068 17.6756 42.1114 17.6771 42.0295 17.6923ZM43.6641 12.4274C43.655 12.3789 43.7444 12.2894 43.7353 12.2378C43.8383 12.2181 43.6808 12.5199 43.6641 12.4274ZM44.0171 11.9541C43.9838 11.7691 44.1898 11.669 44.0732 11.8373C44.0807 11.8813 44.061 11.945 44.0171 11.9541ZM43.9474 11.5552C43.9308 11.4627 44.005 11.4445 44.0217 11.5431L43.9474 11.5552ZM44.0035 11.4399C43.9929 11.3762 44.0095 11.3125 44.0307 11.4339L44.0035 11.4399ZM43.8338 12.1908C43.8005 12.168 43.7717 12.121 43.8156 12.0891C43.8838 12.077 43.8959 12.1802 43.8338 12.1908ZM43.8414 11.9572C43.8368 11.9238 43.9095 11.628 43.952 11.8601C43.8611 11.8753 43.9202 12.1058 43.8141 11.9617L43.8414 11.9572ZM43.0839 13.4846C43.0764 13.4376 42.9097 13.3633 43.0021 13.2935C42.9855 13.1979 43.0127 13.0372 42.9173 12.9704C42.9006 12.8749 42.7506 12.5503 42.6825 12.5017C42.6719 12.4441 42.5643 12.0103 42.6295 11.9177C42.6082 11.7994 42.6082 11.0016 42.6719 10.953C42.6658 10.9197 42.8128 10.3144 42.8128 10.3129C42.7946 10.2083 42.7113 9.72592 42.7779 9.67586C42.74 9.45592 43.3339 8.65049 43.5217 8.51094C43.6157 8.18937 43.755 8.78397 43.8065 8.82037C43.8262 8.93262 44.1231 9.46047 44.2095 9.52115C44.2216 9.60002 44.5625 10.1218 44.6261 10.14C44.6306 10.1673 44.9245 10.5981 44.9367 10.6011C44.9473 10.6573 45.3396 11.0258 45.3881 11.0167C45.5532 10.9864 45.7789 11.0471 45.8789 10.9015C45.9471 10.8893 46.1683 10.7801 46.2319 10.8666C46.4455 10.8287 46.3425 11.0607 46.3667 11.2033C46.391 11.3474 46.3819 11.8449 46.2031 11.8768C46.088 12.0436 45.6441 12.2803 45.4396 12.3167C45.3533 12.3819 45.1321 12.438 45.0972 12.5624C44.9336 12.5912 44.417 12.6291 44.3019 12.5472C44.2534 12.5563 44.105 12.5897 44.1035 12.5821C44.0747 12.5609 43.9353 12.5806 44.0171 12.5199C43.9989 12.4198 44.1837 11.8313 43.9701 12.1392C43.905 12.2332 43.7702 12.5639 43.6702 12.5821C43.502 12.7065 43.2233 13.4604 43.1582 13.4725C43.1339 13.477 43.1097 13.4801 43.0839 13.4846ZM43.9792 13.3542C43.9686 13.2935 44.1353 13.0159 44.1792 13.0068C44.2337 12.9977 44.0883 13.3345 43.9792 13.3542ZM43.9853 12.7808C44.0822 12.6413 43.8414 12.8415 43.8232 12.7383C43.8868 12.7262 43.9368 12.5942 44.0429 12.6716C44.0595 12.7702 43.9807 12.9188 43.958 12.7854L43.9853 12.7808ZM43.6732 12.7641C43.652 12.6443 43.8323 12.6231 43.8111 12.5063C43.8626 12.3303 43.9656 12.4289 43.8474 12.5988C43.7974 12.6716 43.7626 12.749 43.6732 12.7641ZM43.8823 13.5195C43.8823 13.5134 43.8808 13.5074 43.8792 13.4998C43.8656 13.4255 43.952 13.5089 43.8823 13.5195ZM43.855 13.5256L43.8505 13.5043C43.8899 13.4983 43.8944 13.518 43.855 13.5256ZM43.9792 13.3542C44.0474 13.342 43.9202 13.4604 43.9262 13.4907C43.858 13.5028 43.955 13.3587 43.9792 13.3542ZM56.0288 15.637C55.8546 15.5066 55.5683 15.5384 55.4183 15.323C55.3456 15.3094 54.982 14.7739 55.0078 14.6329C54.8956 14.4721 54.9987 14.2309 54.8987 14.0474C54.7199 13.7122 54.9275 13.1797 54.985 12.846C55.1623 12.7201 55.6031 12.9568 55.6516 12.6822C55.9015 12.5048 56.6635 11.8722 56.7075 11.6326C56.8438 11.5355 57.3771 10.8908 57.418 10.812C57.4922 10.6755 57.7846 10.5207 57.6573 10.3372C57.671 10.2523 57.4331 10.0141 57.3589 10.0005C57.215 9.79114 57.1407 9.52873 56.9892 9.31182C57.0241 9.11919 56.7287 8.72178 56.9605 8.48515C57.2831 8.15145 57.7603 8.41689 58.133 8.35622C58.5208 8.29251 59.2071 8.3638 59.5313 8.09836C59.6222 8.021 59.7282 7.99977 59.8221 7.91634C60.1766 7.60691 61.2795 8.4806 61.2174 8.83251C61.331 8.99784 61.3537 9.37401 61.3188 9.57272C61.4097 9.70468 61.1446 10.1203 61.1204 10.2583C61.0325 10.7528 59.8964 10.9591 59.8191 11.3929C59.4373 11.6599 58.2845 12.1483 58.2012 12.6231C58.1118 12.6489 57.7997 12.9689 57.9997 13.0053C58.1315 12.8263 59.4479 12.9735 59.7706 12.9826C59.8994 12.9871 59.9418 12.981 60.0115 13.0827C60.2115 13.1191 60.7841 13.3299 60.8613 13.5969C61.2492 13.6666 61.3173 14.7921 61.2779 15.009C61.3355 15.0909 61.0992 15.4413 61.0159 15.5005C60.9901 15.6582 60.3614 15.3822 60.2736 15.502C59.6934 15.3973 59.101 15.4959 58.5057 15.3882C58.2815 15.3488 57.9133 15.4899 57.6664 15.4929C57.3907 15.4975 57.0408 15.5642 56.7666 15.5157C56.5817 15.6446 56.2515 15.678 56.0288 15.637ZM66.4104 19.4139C66.3498 19.1894 65.606 19.0999 65.5363 18.8512C65.3818 18.7632 65.0728 18.0791 65.1758 17.8925C65.0061 17.2737 65.3833 16.7018 65.6833 16.1649C65.8363 16.1224 65.8454 15.64 66.0575 15.6507C66.0878 15.5976 66.215 15.4747 66.2544 15.499C66.159 15.6704 66.5619 15.5187 66.4211 15.769C66.4468 15.8645 66.3089 16.0572 66.4286 16.1254C66.4832 16.3256 66.5377 16.4758 66.7195 16.579C66.7316 16.6184 66.8104 16.7519 66.8437 16.7701C66.9194 17.0477 67.4148 17.1311 67.6633 17.0613C67.8026 17.0219 68.2662 17.0188 68.3495 16.8687C68.6025 16.7974 68.8646 16.3605 69.007 16.1072C69.163 15.8266 68.6964 15.7902 68.6298 15.5475C68.4101 15.4231 68.3798 14.5919 68.4828 14.4069C68.6995 14.0216 68.5116 13.8471 68.4131 13.4952C68.6055 13.1524 68.8843 13.6515 69.0327 13.7364C69.1342 13.7941 69.2297 13.9002 69.26 14.011C69.3539 14.3523 70.2538 14.2385 70.5113 14.2521C70.6173 14.3128 71.0097 13.9867 71.0582 13.8987C71.2869 13.744 71.6626 13.4861 71.8005 13.2419C71.8974 13.1737 72.2292 12.708 72.3019 12.7126C72.3716 12.5851 72.7564 12.1544 72.5822 12.0558C72.5261 11.851 72.055 11.3975 72.1504 11.2245C72.2307 11.1715 72.6064 11.2761 72.6261 11.352C72.7397 11.4157 73.5138 11.7721 73.5078 11.8874C73.6911 11.9905 74.0774 12.5275 73.9774 12.7065C74.0425 12.9446 73.5623 14.0185 73.3805 14.1429C73.3018 14.2825 72.7246 14.5601 72.8124 14.692C72.9094 14.7466 73.1397 14.9878 73.2684 14.9514C73.4896 15.0788 74.1425 15.6689 73.988 15.9464L73.9986 15.9844C73.8062 16.3287 73.7017 17.5057 73.0594 17.1387C72.9473 17.1326 72.4776 16.9582 72.414 17.0022C72.1368 16.8444 71.8247 16.8975 71.5036 16.7155C71.2975 16.7049 70.943 16.7291 71.096 17.034C71.2051 17.2555 71.2066 17.483 71.4369 17.615C71.4702 17.7348 72.0232 18.2687 72.155 18.3446C72.1868 18.4613 72.7791 18.9316 72.9094 19.0059C73.2715 19.2137 73.5487 19.5459 73.9107 19.7537C74.1319 19.8796 74.4273 20.2846 74.494 20.5258C74.5303 20.6577 74.8106 20.8382 74.7197 21.0005C74.6394 21.1431 74.1365 21.627 73.941 21.5147C73.8198 21.5087 73.632 21.6042 73.5214 21.5405C73.3245 21.5314 72.4686 21.4161 72.4004 21.1643C72.3201 21.1204 72.2868 21.0839 72.2625 20.999C72.0762 20.8928 71.602 20.5455 71.5399 20.3225C71.2112 20.1344 71.2339 19.508 70.9582 19.3502C70.8537 19.1925 70.7022 18.8269 70.5461 18.7389C70.5143 18.6191 70.2947 18.2111 70.2053 18.1595C70.1507 18.0791 70.075 17.9729 69.9871 17.9244C69.8038 17.8182 69.2267 18.7116 69.0388 18.839C68.8373 19.1985 68.295 19.4594 67.9647 19.6839C67.8511 19.8857 67.1634 19.778 67.0043 19.6869C66.8998 19.7158 66.515 19.4731 66.4104 19.4139ZM77.2299 29.5721C77.2935 29.6434 77.3572 29.6662 77.4072 29.7223C77.8344 30.2198 78.713 29.6556 79.0766 29.337C79.1629 29.3431 79.328 29.1338 79.3917 29.1611C79.4901 29.0761 79.9279 28.8213 80.034 28.8653C80.0597 28.8441 80.4612 28.4603 80.5612 28.4679C80.6748 28.3693 80.8308 28.4709 80.902 28.4087C80.9717 28.3905 81.3762 28.7106 81.4716 28.75C81.5489 28.8395 82.1261 29.4022 82.0731 29.5327C82.1276 29.5964 82.3397 29.8482 82.3351 29.9119C82.4003 29.9877 82.7472 29.9847 82.8138 29.9256C83.0153 29.874 83.0835 29.6343 83.0971 29.4478C83.1093 29.246 83.2047 28.797 83.079 28.6499C83.1835 28.3936 82.376 27.717 82.2291 27.5487C82.1261 27.4273 81.9988 27.3545 81.8943 27.2332C81.6913 27.1482 81.8231 26.8843 81.8943 26.9662C82.0322 26.9298 82.2336 27.0239 82.3503 27.0724C82.4745 27.218 83.5122 27.0542 83.5289 26.8145C83.6061 26.7463 83.5228 25.9166 83.4168 25.7952C83.438 25.504 82.2518 24.0797 81.9458 24.1586C81.9276 24.1388 81.6065 24.022 81.5913 24.0251C81.5459 23.972 81.0566 23.7521 81.0051 23.7672C80.9217 23.6717 80.7248 23.6671 80.649 23.5791C80.5521 23.4654 80.24 23.4942 80.14 23.3789C79.8674 23.3607 79.4598 23.0877 79.2841 22.8844C79.1463 22.7236 79.1341 23.1908 79.0826 23.2363C79.072 23.388 79.0448 23.52 79.0326 23.6762C79.0175 23.9083 79.3659 24.2511 79.5613 24.3315C79.7053 24.5014 79.9567 24.3861 80.1385 24.4619C80.34 24.4088 80.9157 24.7046 81.0414 24.8518C81.2141 24.8062 81.8443 25.0505 81.9761 25.2037C82.0246 25.1915 82.5321 25.7088 82.5245 25.8392C82.4124 25.9378 82.2185 25.8453 82.0912 25.8787C81.8337 25.8604 81.5731 25.8028 81.3141 25.7846C81.0581 25.7664 81.0217 25.8741 80.852 26.0243C80.8127 26.0592 80.8854 26.3367 80.7657 26.2002C80.5703 26.1866 80.2961 25.7012 80.1431 25.7406C80.0916 25.6815 80.0416 25.6966 79.9901 25.636C79.8234 25.6253 79.6916 25.102 79.5704 24.9594C79.5295 24.7971 79.2553 24.7001 79.1357 24.8047C79.0357 24.7623 79.0372 24.92 78.9978 24.9534C78.9827 25.1991 78.6691 25.771 78.8584 25.9924C78.8357 26.3094 78.8933 26.5749 79.1054 26.8191C79.1447 26.9753 79.5068 27.0527 79.6189 27.1816C79.7022 27.1589 80.087 27.6109 80.0794 27.717C80.0582 28.0417 79.272 28.2661 78.9796 28.342C78.9205 28.3936 78.5873 28.4603 78.5358 28.3996C78.4252 27.9628 78.1298 27.5381 78.1631 27.0739C78.1373 26.9753 78.4297 26.8024 78.4403 26.6629C78.513 26.5991 78.7509 26.1426 78.5464 26.1274L78.3949 26.2594C78.1979 26.2457 78.057 26.4353 77.8798 26.4808C77.798 26.5521 77.7253 26.5112 77.6268 26.537C77.4162 26.449 76.9148 27.1422 76.9527 27.2939C76.9345 27.5699 76.7769 27.9825 76.9784 28.2146C76.9724 28.3056 76.9951 28.662 77.0496 28.7242C77.0375 28.9093 77.2829 29.4462 77.2299 29.5721ZM76.324 23.165C76.3785 23.2272 76.4209 23.1726 76.4452 23.2621C76.3891 23.3107 76.533 23.3122 76.5618 23.3243C76.6482 23.4229 76.983 23.1575 77.0633 23.0877C77.2405 22.933 77.4965 22.9375 77.6662 22.7904C77.8162 22.7509 78.0267 22.6114 78.151 22.5037C78.4146 22.2716 78.8811 22.3308 79.1417 22.1033C79.3417 22.0517 79.4159 21.8803 79.6068 22.1017C79.6416 22.0926 80.1643 22.5158 80.2158 22.575C80.39 22.5295 80.8869 23.0027 80.999 23.1332C81.1868 23.3516 81.4216 23.4654 81.6625 23.5655C81.7519 23.6686 81.9519 23.6656 82.0594 23.7915C82.1109 23.7778 82.3064 23.9538 82.3685 23.9917C82.6866 24.3603 83.0623 24.606 83.3865 24.9822C83.4168 24.9746 83.4516 24.9837 83.4728 25.008C83.6864 24.9519 83.9258 25.4312 83.9167 25.598C84.0303 25.7315 84.1454 25.8635 84.2591 25.997C84.3545 26.1077 84.5075 26.5734 84.4999 26.7008C84.5605 26.7705 84.5833 27.0421 84.5772 27.1407C84.6969 27.2817 84.1333 27.3924 84.0546 27.4592C83.7531 27.7262 83.9879 28.3481 84.2106 28.6074C84.2469 28.6484 84.3 28.6362 84.3439 28.6848C84.4333 28.662 84.606 28.9912 84.6605 29.0534C84.8044 29.2217 84.9756 29.1747 85.1604 29.2521C85.2104 29.3112 85.471 29.1687 85.5604 29.2066C85.6422 29.1323 85.7316 29.061 85.7391 28.9472C85.8694 28.8334 85.8679 28.0128 85.7906 27.9233C85.7513 27.7732 85.8149 27.4956 85.7149 27.3803C85.7876 27.2028 85.5331 26.6795 85.5498 26.4535C85.5634 26.2351 85.3619 26 85.215 25.8331C85.1407 25.7467 85.0044 25.6223 85.012 25.5116C84.9605 25.3053 85.2983 25.2901 85.3846 25.2112C85.5786 25.2264 85.7891 24.9337 85.9921 24.9488C86.2436 24.7274 86.642 24.6804 86.9011 24.4543C87.0117 24.3588 87.3207 24.427 87.4283 24.333C87.501 24.2693 87.6812 24.1965 87.7721 24.2344C88.016 24.1707 88.1342 23.8871 88.1509 23.6626C88.2463 23.5776 87.8948 23.0998 87.7994 22.9906C87.7176 22.8966 87.7115 22.7722 87.6267 22.6736C87.6328 22.6569 87.5419 22.3839 87.5191 22.3596C87.5797 22.217 87.2525 21.9228 87.2343 22.1761C87.0435 22.3444 87.1843 23.0164 87.2359 23.2181C87.254 23.2394 87.2586 23.2454 87.248 23.2743C87.4055 23.4578 87.3707 23.4411 87.2101 23.5822C87.1692 23.5655 86.642 23.8764 86.5799 23.9326C86.4027 23.7278 86.4708 23.1681 86.4905 22.8935C86.4254 22.8177 86.2421 22.8875 86.2345 22.9891C85.9118 23.2727 85.9376 23.6899 85.9088 24.0782C86.0073 24.1935 85.9679 24.1935 85.877 24.2738C85.7088 24.2617 85.1498 24.741 85.1801 24.3133C85.1104 24.2329 85.1529 23.9083 85.1604 23.793C85.171 23.661 85.0165 23.5382 85.0271 23.4032C84.8029 23.1438 84.553 24.0114 84.6575 24.1328C84.6454 24.3118 84.6469 24.4695 84.7666 24.6106C84.759 24.7077 84.3954 24.7941 84.3151 24.7016C84.2 24.694 84.0591 24.6075 83.9849 24.5196C83.8576 24.3724 83.8091 24.4058 83.9894 24.2496C84.2136 24.1904 84.0697 23.8597 84.0818 23.6974C84.0152 23.6201 83.9425 22.8025 84.1576 22.892C84.2318 22.9785 84.7575 22.9269 84.8938 22.9845C84.9271 23.0209 85.1529 23.0316 85.2135 23.0361C85.3301 23.1711 85.6164 22.8662 85.6255 22.7494C85.6482 22.396 85.674 22.0502 85.6967 21.7058C85.7073 21.5481 86.2118 21.7726 86.2815 21.8014C86.386 21.9228 86.645 22.1215 86.7814 22.0001C86.7844 21.9683 86.8208 21.9015 86.8435 21.8818C86.9026 21.8287 86.7844 21.5041 86.7284 21.4389C86.7602 21.3615 86.5314 21.316 86.4708 21.3312C86.1497 21.1977 85.6104 21.4131 85.6497 20.8337C85.7937 20.7078 85.3786 20.0768 85.3574 20.3892C85.1832 20.5424 85.1877 20.7927 85.1726 21.0218C85.0483 21.131 84.9771 21.002 84.8529 21.0339C84.7287 20.9823 84.0894 20.9793 84.1 20.8185C84.2878 20.6532 84.5211 20.3832 84.7423 20.2906C84.9817 20.0813 85.3059 19.3927 85.0226 19.065C84.8499 18.8633 84.8878 19.147 84.812 19.2137C84.7847 19.6278 84.4833 19.9084 84.1636 20.1905C84.1515 20.3513 83.6713 20.5682 83.6607 20.7336C83.2214 21.1188 82.8078 21.5451 82.3639 21.9364C82.3079 21.9849 82.1079 22.0168 82.1018 22.1002C82.0019 22.1882 81.9337 22.2762 81.8352 22.3626C81.767 22.4218 81.7428 22.798 81.5565 22.5795C81.4701 22.4809 81.2293 22.3975 81.2005 22.2838C81.052 22.1108 81.3292 22.17 81.3656 22.1381C81.4686 22.1108 81.7913 21.7225 81.7973 21.63C82.1639 21.3069 82.4927 20.9444 82.8608 20.6213C82.8896 20.5515 82.9623 20.4681 83.0214 20.4165C83.0244 20.3726 83.2259 20.0343 83.2607 20.004C83.3395 19.9342 83.4834 19.5959 83.491 19.4958C83.5819 19.417 83.5365 19.0044 83.4016 19.0408C83.3728 19.0074 83.2956 19.1333 83.2501 19.1727C83.238 19.335 83.2411 19.4109 83.1183 19.5186C83.1077 19.6596 82.8699 19.784 82.8593 19.9205C82.6851 20.0753 82.5745 20.2376 82.3972 20.3923C82.2851 20.5819 82.0473 20.6729 81.9397 20.8579C81.6565 21.1067 81.4444 21.3949 81.149 21.6528C81.1444 21.7514 81.1732 21.988 81.0914 22.0092C80.8702 22.2034 80.8445 21.8378 80.7081 21.8742C80.6551 21.8105 80.2627 21.3873 80.2037 21.4025C80.1219 21.3084 80.2582 21.1825 80.2643 21.0809C80.287 20.77 80.031 20.6865 79.7992 20.8898C79.5704 20.7957 79.1917 21.2478 79.0463 21.3767C78.8705 21.5299 78.5918 21.5435 78.4009 21.7104C78.357 21.6922 77.8162 22.0001 77.6844 22.035C77.5662 22.1397 77.2935 22.0744 77.1754 22.1776C76.9193 22.1594 76.3709 22.4855 76.3513 22.7707C76.2179 22.889 76.3331 23.0316 76.324 23.165ZM84.0318 22.2913L84.0349 22.2519C83.9834 22.1912 84.0121 21.7908 84.0197 21.6922C84.0864 21.5299 83.9197 21.4723 84.1742 21.4905C84.2591 21.5891 84.7832 21.4844 84.9256 21.5435C84.9908 21.5481 85.1544 21.6103 85.2074 21.5633C85.318 21.6922 85.2059 22.0911 85.1938 22.2489C85.168 22.6266 84.2197 22.5098 84.0318 22.2913ZM82.8426 22.2261C82.8487 22.1199 83.3319 21.8181 83.2532 21.7271C83.3047 21.6831 83.5153 21.4146 83.538 21.4404C83.5274 21.5966 83.4319 21.9334 83.5349 22.0532C83.5304 22.123 83.5652 22.1503 83.538 22.2155C83.5183 22.4961 83.1638 22.2489 82.9987 22.2929C82.9366 22.2656 82.8911 22.2822 82.8426 22.2261ZM81.9064 22.8723C81.9307 22.8511 82.0882 22.842 82.123 22.8571C82.3048 22.6979 82.5094 22.6326 82.7396 22.6493C82.8532 22.619 83.5546 22.7434 83.5425 22.9239C83.6592 23.0589 83.491 23.3637 83.6092 23.5003C83.6016 23.6307 83.797 24.1267 83.5001 24.1055C83.3804 23.9674 82.9123 23.3668 82.7608 23.4062C82.5548 23.1666 82.117 23.1165 81.9064 22.8723ZM51.4992 2.73636C24.5581 2.73636 2.70865 24.7971 2.70865 52C2.70865 79.2028 24.5581 101.265 51.4992 101.265C78.4403 101.265 100.291 79.2044 100.291 52C100.291 24.7956 78.4418 2.73636 51.4992 2.73636ZM51.4992 3.22175C24.8248 3.22175 3.18888 25.0656 3.18888 52C3.18888 78.9344 24.8248 100.778 51.4992 100.778C78.1737 100.778 99.8096 78.9359 99.8096 52C99.8096 25.0641 78.1767 3.22175 51.4992 3.22175ZM51.4992 19.6566C33.8112 19.6566 19.4681 34.1408 19.4681 52C19.4681 69.8592 33.8112 84.3434 51.4992 84.3434C69.1873 84.3434 83.5334 69.8592 83.5334 52C83.5334 34.1408 69.1888 19.6566 51.4992 19.6566ZM51.4992 21.2614C34.6883 21.2614 21.0557 35.0267 21.0557 52C21.0557 68.9733 34.6883 82.7401 51.4992 82.7401C68.3101 82.7401 81.9443 68.9733 81.9443 52C81.9443 35.0267 68.3101 21.2614 51.4992 21.2614ZM10.3847 40.2066L10.1332 40.9423C9.30001 40.642 8.7198 40.2446 8.39409 39.7486C8.06687 39.2541 8.01537 38.6837 8.23503 38.0391C8.46984 37.3504 8.92431 36.9409 9.59844 36.8059C10.2711 36.6709 11.1967 36.8059 12.3677 37.2124C13.5917 37.6386 14.4219 38.1104 14.8582 38.6291C15.2945 39.1464 15.3869 39.7713 15.1369 40.5024C14.9294 41.1122 14.5931 41.5202 14.131 41.7295C13.6675 41.9389 13.113 41.9298 12.4677 41.7053L12.3859 41.6764L12.6298 40.959C13.0827 41.1167 13.4736 41.1319 13.8038 41.0075C14.1341 40.8831 14.3613 40.6374 14.4886 40.2673C14.6431 39.8138 14.537 39.4103 14.1689 39.0599C13.7993 38.708 13.11 38.3576 12.0965 38.0057C11.1073 37.6614 10.3695 37.5188 9.88022 37.5795C9.3909 37.6386 9.06671 37.9026 8.90613 38.3743C8.77736 38.7535 8.8319 39.0978 9.06974 39.4073C9.3091 39.7182 9.71206 39.9715 10.2817 40.1702L10.3847 40.2066ZM7.40486 41.7614L14.2613 43.1068L14.1098 43.8986L11.2815 43.3434L10.7861 45.9236L13.6129 46.4787L13.4615 47.2705L6.60196 45.9251L6.75497 45.1333L10.0953 45.7886L10.5922 43.2084L7.25185 42.5532L7.40486 41.7614ZM9.89234 48.3899C11.0119 48.4294 11.7799 48.5644 12.1995 48.7934C12.6207 49.024 12.8222 49.4032 12.8025 49.9341C12.7843 50.471 12.5631 50.8381 12.1389 51.0353C11.7133 51.2325 10.9316 51.3098 9.79387 51.2704C8.65163 51.231 7.87297 51.096 7.46243 50.87C7.05037 50.6439 6.85343 50.2617 6.87313 49.7247C6.89131 49.1939 7.12006 48.8298 7.55484 48.6296C7.99113 48.4294 8.76979 48.349 9.89234 48.3899ZM9.92112 47.5708C11.2209 47.6164 12.1495 47.8287 12.707 48.2034C13.2645 48.5765 13.5281 49.1635 13.5008 49.9583C13.4736 50.7607 13.1706 51.328 12.5949 51.6602C12.0193 51.9924 11.077 52.135 9.76357 52.0895C8.45166 52.0425 7.52302 51.8347 6.97008 51.463C6.41866 51.0929 6.15658 50.5059 6.18536 49.7005C6.21263 48.9087 6.52015 48.3444 7.10642 48.0062C7.69269 47.671 8.63042 47.5253 9.92112 47.5708ZM6.2505 53.5911L13.2206 53.0982L13.2918 54.1493L7.48364 57.0131L13.4569 56.5171L13.5084 57.2755L6.53833 57.767L6.47016 56.7628L12.454 53.8505L6.30201 54.348L6.2505 53.5911ZM7.64725 63.132L8.57891 62.8696C8.19261 62.8271 7.87448 62.6906 7.62301 62.4646C7.37002 62.2356 7.20035 61.9307 7.11248 61.5469C6.94281 60.8052 7.10945 60.1924 7.6124 59.707C8.11687 59.2216 8.98945 58.8333 10.2286 58.5451C11.4633 58.2569 12.4025 58.2327 13.0418 58.4708C13.6826 58.7074 14.0962 59.2307 14.281 60.0392C14.4249 60.6626 14.3492 61.1905 14.0583 61.6258C13.769 62.0611 13.2918 62.3599 12.6298 62.5222L12.4556 61.7638C12.9161 61.6395 13.2494 61.4392 13.4524 61.1601C13.6554 60.8795 13.7129 60.5443 13.622 60.1514C13.4993 59.6175 13.1827 59.2929 12.6676 59.1746C12.1541 59.0548 11.3315 59.1291 10.1953 59.393C9.28486 59.6054 8.63951 59.883 8.25624 60.2258C7.87448 60.5686 7.73965 60.9902 7.85479 61.4863C7.95629 61.9352 8.20473 62.2386 8.60164 62.3948C8.99551 62.5526 9.51967 62.5541 10.1726 62.4024C10.2529 62.3842 10.3135 62.369 10.3544 62.3584C10.3968 62.3463 10.4377 62.3342 10.4741 62.322L10.1196 60.7658L10.8089 60.605L11.3315 62.8999L7.78359 63.7266L7.64725 63.132ZM9.86961 67.8463C9.75296 67.7781 9.65753 67.6886 9.58178 67.5794C9.50603 67.4686 9.43786 67.323 9.37878 67.1395C9.2182 66.6389 9.30758 66.2188 9.64995 65.882C9.9908 65.5453 10.6968 65.2025 11.7678 64.8521C12.8373 64.5002 13.6054 64.3591 14.075 64.4304C14.5461 64.5002 14.8612 64.7884 15.0218 65.2889C15.1869 65.8016 15.1021 66.2233 14.7673 66.557C14.431 66.8877 13.6963 67.2396 12.5601 67.6127C12.1738 67.7386 11.8163 67.8342 11.4845 67.9024C11.1527 67.9692 10.8376 68.0101 10.5407 68.0208L10.8679 67.2153L10.2332 66.9468L9.86961 67.8463ZM9.57572 68.5532C9.39696 68.4713 9.23638 68.3287 9.09095 68.1269C8.94552 67.9267 8.82433 67.6689 8.72434 67.3549C8.48196 66.601 8.57891 65.9639 9.01521 65.4437C9.45301 64.9264 10.2847 64.4653 11.5133 64.0633C12.751 63.6568 13.6947 63.534 14.3462 63.6948C14.9945 63.854 15.443 64.3136 15.6869 65.0705C15.9323 65.8335 15.8414 66.4721 15.4127 66.9817C14.9839 67.4929 14.1447 67.954 12.8979 68.3636C12.2995 68.5592 11.7723 68.6912 11.3179 68.7564C10.8634 68.8216 10.4998 68.8201 10.2271 68.7519L9.86355 69.7105L9.23032 69.4739L9.57572 68.5532ZM10.3786 70.8921L16.7594 68.0223L17.0851 68.7595L10.7028 71.6278L10.3786 70.8921ZM11.4497 73.1188L17.5593 69.6984L18.0653 70.6206L13.9977 75.6944L19.2045 72.6956L19.5696 73.36L13.4584 76.7805L12.9752 75.8992L17.179 70.7071L11.8132 73.7832L11.4497 73.1188ZM16.6943 81.1717L17.429 80.5361C17.0609 80.662 16.7155 80.6757 16.3913 80.5771C16.0671 80.4785 15.7853 80.2737 15.546 79.9643C15.0809 79.3636 14.9764 78.7372 15.2293 78.0819C15.4839 77.4281 16.111 76.7046 17.1139 75.9128C18.1122 75.1256 18.9515 74.7024 19.6317 74.6448C20.3119 74.5871 20.9057 74.8829 21.4117 75.5382C21.8025 76.0418 21.954 76.5529 21.8737 77.0717C21.795 77.5889 21.4874 78.0637 20.9527 78.493L20.4785 77.8802C20.8451 77.5707 21.0617 77.2476 21.1284 76.9079C21.195 76.5666 21.1072 76.2389 20.8618 75.9219C20.5285 75.4896 20.1043 75.3304 19.5877 75.4441C19.0727 75.5549 18.3561 75.972 17.4396 76.6955C16.7018 77.278 16.2337 77.8043 16.0292 78.2776C15.8262 78.7523 15.8808 79.1907 16.1913 79.5927C16.4731 79.9567 16.8245 80.1251 17.2502 80.0963C17.6744 80.0705 18.1486 79.849 18.6758 79.4334C18.7409 79.3833 18.7894 79.3439 18.8242 79.3151C18.8575 79.2863 18.8894 79.259 18.9166 79.2317L17.9441 77.9727L18.5015 77.5328L19.9362 79.3879L17.0654 81.6525L16.6943 81.1717ZM25.7504 80.5149L22.7584 83.99C22.3721 84.4389 22.1176 84.7742 21.9934 84.9941C21.8707 85.2156 21.7995 85.4264 21.7859 85.6236C21.7601 85.9133 21.8162 86.2015 21.9525 86.4897C22.0904 86.7779 22.2979 87.0433 22.5721 87.286C22.8418 87.5227 23.122 87.688 23.4083 87.7851C23.6962 87.8821 23.987 87.9064 24.2779 87.8609C24.5203 87.8215 24.7475 87.732 24.9566 87.5894C25.1656 87.4498 25.4641 87.1525 25.8504 86.7036L28.8423 83.2285L28.2681 82.7234L25.1838 86.3062C24.7884 86.7658 24.4188 87.0312 24.0734 87.1025C23.7249 87.1738 23.3811 87.06 23.0372 86.7597C22.6994 86.4624 22.5448 86.1545 22.5721 85.8375C22.5994 85.5189 22.8266 85.1124 23.2568 84.6134L26.3397 81.0321L25.7504 80.5149ZM25.7095 89.5143L29.5134 83.5986L30.3905 84.172L29.1589 90.5791L32.3599 85.4658L32.9916 85.8784L29.1877 91.7956L28.3515 91.2465L29.6467 84.6695L26.3412 89.9283L25.7095 89.5143ZM30.7556 92.5631L34.0354 86.335L34.7413 86.7142L31.4616 92.9423L30.7556 92.5631ZM34.2717 94.2361L35.0792 86.9584L35.8669 87.28L35.067 93.5096L38.8195 88.4843L39.5451 88.7801L35.1413 94.5926L34.2717 94.2361ZM38.0075 95.6316L39.9329 88.8499L43.2657 89.8146L43.0642 90.5199L40.4753 89.7691L39.8557 91.9488L42.275 92.6495L42.0811 93.3367L39.6602 92.6359L38.9513 95.1326L41.5675 95.8895L41.366 96.6024L38.0075 95.6316ZM44.1383 93.1835L44.4882 90.664L45.5759 90.8187C46.0743 90.89 46.4258 91.0387 46.6212 91.2647C46.8197 91.4892 46.8894 91.8153 46.8288 92.243C46.7682 92.6875 46.5955 92.9954 46.3122 93.1698C46.0304 93.3442 45.6184 93.3943 45.076 93.3169L44.1383 93.1835ZM42.8567 96.8587L43.8293 89.8737L45.7699 90.1483C46.4864 90.2499 46.9954 90.4729 47.3045 90.8172C47.6105 91.1615 47.7211 91.6363 47.6362 92.24C47.5711 92.7087 47.415 93.0697 47.1666 93.32C46.9182 93.5687 46.5667 93.7189 46.1137 93.769C46.4925 93.8569 46.7621 94.0238 46.9257 94.268C47.0863 94.5122 47.156 94.8671 47.1333 95.3298C47.1242 95.5012 47.1105 95.7363 47.0863 96.0397C47.0272 96.8087 47.0848 97.2895 47.256 97.4822L46.2986 97.3472C46.2258 97.1727 46.2168 96.7844 46.2728 96.1822C46.3001 95.8804 46.3167 95.6407 46.3273 95.4648C46.3531 94.9779 46.2743 94.6305 46.094 94.4242C45.9123 94.2195 45.5578 94.0784 45.0275 94.0026L44.0429 93.863L43.6111 96.9664L42.8567 96.8587ZM48.6088 95.301L49.3511 95.3267L49.342 95.5785C49.3269 96.0579 49.4238 96.4234 49.6344 96.6767C49.8434 96.9285 50.1646 97.062 50.5933 97.0757C50.9811 97.0908 51.2871 96.9831 51.5174 96.7556C51.7477 96.5281 51.8673 96.2095 51.8825 95.797C51.8946 95.4663 51.8371 95.21 51.7083 95.0264C51.5795 94.8444 51.2826 94.6548 50.816 94.4576C50.7054 94.4091 50.5509 94.3454 50.3494 94.2619C49.7934 94.0344 49.4571 93.8676 49.342 93.7599C49.1542 93.5778 49.0178 93.3655 48.9315 93.1243C48.8436 92.8801 48.8072 92.5995 48.8178 92.2825C48.8375 91.6682 49.0224 91.1949 49.3708 90.8612C49.7177 90.526 50.1903 90.3697 50.7872 90.391C51.3553 90.4107 51.7962 90.5851 52.1082 90.9173C52.4188 91.2495 52.5627 91.6985 52.5445 92.2627C52.5445 92.2794 52.5415 92.3113 52.5369 92.3522C52.5324 92.3917 52.5294 92.422 52.5294 92.4402L51.8113 92.4159L51.8143 92.3416C51.828 91.9457 51.7431 91.6363 51.5583 91.4148C51.3735 91.1934 51.1069 91.0766 50.7554 91.0629C50.3933 91.0508 50.1055 91.1448 49.8904 91.3436C49.6738 91.5407 49.5601 91.8168 49.548 92.1657C49.5359 92.4994 49.598 92.7603 49.7344 92.9468C49.8692 93.1349 50.1722 93.3276 50.6448 93.5217C50.7009 93.543 50.7842 93.5794 50.8948 93.6249C51.6144 93.9222 52.0431 94.1406 52.1794 94.2801C52.3461 94.4485 52.4688 94.6502 52.5415 94.8838C52.6172 95.1205 52.649 95.398 52.6384 95.7211C52.6142 96.39 52.4142 96.9043 52.037 97.2653C51.6568 97.6232 51.1417 97.7916 50.4873 97.7688C49.8374 97.7461 49.3541 97.5459 49.0345 97.1667C48.7133 96.789 48.5679 96.2444 48.5906 95.533C48.5921 95.5103 48.5952 95.4708 48.5997 95.4178C48.6058 95.3647 48.6088 95.3252 48.6088 95.301ZM54.1049 97.561L53.4959 90.5336L54.2912 90.4638L54.8987 97.4913L54.1049 97.561ZM57.8891 97.2531L57.0165 90.9841L55.2532 91.2343L55.1517 90.5184L59.3661 89.9208L59.4661 90.6367L57.8073 90.8718L58.6799 97.1409L57.8891 97.2531ZM62.8065 96.2368L62.0627 93.6127L58.8965 90.03L59.7918 89.7706L62.2217 92.6799L62.8277 88.8923L63.6427 88.6557L62.8216 93.3928L63.567 96.0169L62.8065 96.2368ZM69.2676 90.1362C68.7419 89.1381 68.4722 88.3994 68.4601 87.917C68.448 87.4332 68.6722 87.0691 69.1373 86.8188C69.6054 86.567 70.0326 86.5777 70.4128 86.8492C70.7946 87.1222 71.2536 87.7669 71.7884 88.7831C72.3246 89.8009 72.5988 90.5487 72.611 91.0205C72.6231 91.4952 72.3913 91.8562 71.9232 92.108C71.4581 92.3583 71.0324 92.3416 70.6416 92.0595C70.2522 91.7789 69.7932 91.1373 69.2676 90.1362ZM68.551 90.5214C67.9405 89.3611 67.6572 88.4434 67.6996 87.7699C67.7436 87.0949 68.1132 86.5701 68.8101 86.1954C69.5115 85.8193 70.1492 85.7995 70.7219 86.1363C71.2945 86.476 71.8883 87.2284 72.5034 88.3979C73.1215 89.5689 73.4078 90.4865 73.3654 91.1555C73.323 91.8214 72.9503 92.3447 72.2459 92.7224C71.552 93.0955 70.9158 93.1091 70.3325 92.7648C69.7508 92.419 69.157 91.6727 68.551 90.5214ZM75.5271 90.708L71.7232 84.7924L74.4288 83.0177L74.8136 83.6168L72.7776 84.9516L74.0016 86.8537L75.8968 85.6099L76.2907 86.2258L74.3955 87.468L76.1982 90.2681L75.5271 90.708ZM83.3531 84.4769L83.8985 83.8868L79.3129 79.5699L80.4536 78.3337L79.931 77.8407L77.0284 80.9821L77.5511 81.4766L78.7675 80.16L83.3531 84.4769ZM85.8149 81.7375L87.9645 78.9586L87.3873 78.5021L85.7104 80.6666L83.6834 79.0678L85.2332 77.0656L84.6772 76.6257L83.1259 78.628L81.3565 77.2325L83.0153 75.0892L82.4427 74.6372L80.3097 77.3948L85.8149 81.7375ZM88.4993 73.5557L88.9083 72.8943C89.6552 73.3767 90.1308 73.897 90.3384 74.4536C90.5459 75.0088 90.4687 75.5776 90.1112 76.1555C89.7294 76.7729 89.1946 77.0687 88.5084 77.0459C87.8221 77.0262 86.9511 76.6834 85.8997 76.0205C84.8029 75.3273 84.1 74.6796 83.791 74.076C83.4804 73.4723 83.5289 72.8428 83.9349 72.1875C84.2727 71.6399 84.6908 71.3184 85.1877 71.2213C85.6861 71.1212 86.2254 71.2562 86.8041 71.6217L86.8783 71.6672L86.4799 72.3119C86.0724 72.0555 85.6967 71.9509 85.3468 71.9979C84.9953 72.0434 84.7196 72.2315 84.5136 72.5637C84.2621 72.9702 84.2772 73.3873 84.556 73.812C84.8378 74.2383 85.4316 74.7373 86.3405 75.3106C87.2283 75.8704 87.9161 76.1768 88.4054 76.2299C88.8962 76.2814 89.2704 76.0979 89.5325 75.6747C89.7415 75.3364 89.7657 74.9876 89.6021 74.6326C89.44 74.2762 89.1022 73.9349 88.5917 73.6133L88.4993 73.5557ZM91.8654 72.8412L85.4831 69.9729L85.8088 69.2357L88.4387 70.4189L89.4976 68.0177L86.8662 66.8346L87.1919 66.0974L93.5742 68.9673L93.25 69.7029L90.1399 68.3059L89.081 70.7071L92.1896 72.1041L91.8654 72.8412ZM94.2271 67.3685L87.4798 65.5423L87.7509 64.5245L94.165 63.7266L88.3584 62.2325L88.5523 61.4984L95.3012 63.3246L95.0422 64.2954L88.4463 65.0842L94.4226 66.6344L94.2271 67.3685ZM92.4335 60.3532C91.3307 60.1575 90.5883 59.9163 90.2036 59.6297C89.8188 59.3415 89.6718 58.938 89.7642 58.4147C89.8551 57.8868 90.1263 57.5546 90.5732 57.4166C91.0216 57.2831 91.8078 57.315 92.9289 57.5152C94.0545 57.7154 94.8058 57.9566 95.1815 58.2372C95.5572 58.5208 95.6996 58.9258 95.6072 59.4552C95.5163 59.9785 95.2391 60.3077 94.7801 60.4442C94.3211 60.5807 93.5379 60.5504 92.4335 60.3532ZM92.2926 61.1601C91.011 60.9326 90.1202 60.5928 89.6203 60.1439C89.1204 59.6934 88.9386 59.076 89.0765 58.2918C89.2143 57.5015 89.5915 56.9828 90.2066 56.7355C90.8232 56.4868 91.776 56.4777 93.0698 56.7082C94.362 56.9373 95.2558 57.2755 95.7511 57.72C96.245 58.1629 96.4238 58.7833 96.2859 59.5766C96.1496 60.3562 95.7663 60.8719 95.1391 61.1252C94.5135 61.3755 93.5636 61.3861 92.2926 61.1601ZM96.5677 55.7162L89.5976 55.2248L89.6521 54.4375L95.8708 54.8774L96.0647 52.0667L96.8161 52.1198L96.5677 55.7162ZM93.2924 50.9397C92.1775 51.0383 91.3973 50.9989 90.9534 50.8229C90.5081 50.6455 90.2626 50.2936 90.2172 49.7642C90.1702 49.2303 90.3475 48.8389 90.7429 48.5902C91.1413 48.3429 91.9078 48.1685 93.044 48.0684C94.1817 47.9683 94.9695 48.0047 95.4057 48.1776C95.842 48.3535 96.0814 48.7085 96.1284 49.2424C96.1738 49.7733 95.9905 50.1616 95.583 50.4149C95.174 50.6667 94.4105 50.8411 93.2924 50.9397ZM93.3637 51.7558C92.0669 51.8711 91.1201 51.7755 90.5217 51.4721C89.9233 51.1688 89.59 50.6197 89.5219 49.8264C89.4522 49.0285 89.6824 48.4263 90.2142 48.0259C90.7459 47.6255 91.6654 47.3676 92.9728 47.2523C94.2802 47.137 95.2285 47.228 95.8223 47.5299C96.4147 47.8287 96.7449 48.3808 96.8146 49.1817C96.8828 49.972 96.6449 50.5711 96.1041 50.9776C95.5633 51.3826 94.6498 51.6435 93.3637 51.7558ZM95.633 41.7341L94.6922 41.9646C95.077 42.0208 95.3906 42.1679 95.6345 42.403C95.8784 42.6411 96.039 42.9521 96.1117 43.3389C96.2571 44.0852 96.0693 44.6904 95.5481 45.1591C95.0285 45.6263 94.1438 45.9827 92.894 46.2285C91.6503 46.4727 90.7126 46.4636 90.0808 46.2042C89.4491 45.9433 89.0537 45.4063 88.8962 44.5918C88.7765 43.9638 88.8674 43.439 89.1719 43.0143C89.4764 42.5881 89.9642 42.3059 90.6338 42.1694L90.7807 42.9339C90.3157 43.0416 89.9763 43.2297 89.7642 43.5012C89.5506 43.7742 89.4825 44.1064 89.5582 44.5038C89.6627 45.0408 89.9688 45.3775 90.4793 45.5125C90.9883 45.649 91.8139 45.605 92.9561 45.3805C93.8757 45.2016 94.5286 44.9467 94.924 44.6176C95.3179 44.2884 95.4663 43.8728 95.3694 43.3723C95.283 42.9202 95.0437 42.6078 94.6528 42.4379C94.265 42.2665 93.7409 42.2453 93.0849 42.3742C93.0046 42.3909 92.944 42.403 92.9001 42.4121C92.8577 42.4227 92.8183 42.4333 92.7789 42.444L93.0804 44.0124L92.3865 44.1489L91.9412 41.8372L95.5194 41.1349L95.633 41.7341ZM94.5998 38.1847L92.0457 39.0736L88.6659 42.4515L88.3645 41.5627L91.114 38.9598L87.3358 38.5487L87.0601 37.7388L91.7881 38.3182L94.3438 37.4308L94.5998 38.1847ZM88.6053 31.9338C89.181 31.9338 89.6476 32.4056 89.6476 32.985C89.6476 33.5644 89.181 34.0346 88.6053 34.0346C88.0312 34.0346 87.5661 33.5644 87.5661 32.985C87.5661 32.4056 88.0312 31.9338 88.6053 31.9338ZM14.3931 31.9338C14.9688 31.9338 15.4339 32.4056 15.4339 32.985C15.4339 33.5644 14.9688 34.0346 14.3931 34.0346C13.819 34.0346 13.3524 33.5644 13.3524 32.985C13.3524 32.4056 13.819 31.9338 14.3931 31.9338Z" fill-rule="evenodd"  fill="#007DC5" >
</path>
</svg>
