<?xml version="1.0" standalone="no"?><!DOCTYPE svg PUBLIC "-//W3C//DTD SVG 1.1//EN" "http://www.w3.org/Graphics/SVG/1.1/DTD/svg11.dtd"><svg t="1740461066549" class="icon" viewBox="0 0 1024 1024" version="1.1" xmlns="http://www.w3.org/2000/svg" p-id="5561" xmlns:xlink="http://www.w3.org/1999/xlink" width="200" height="200"><path d="M840.7 327.4H182.5c-30.9 0-56 25.1-56 56V838c0 30.9 25 56 56 56h17.8l-18.7 18.7c-10.9 10.9-10.9 28.6 0 39.6 10.9 10.9 28.6 10.9 39.6 0l58.3-58.3h464.3l58.3 58.3c5.5 5.5 12.6 8.2 19.8 8.2 7.2 0 14.3-2.7 19.8-8.2 10.9-10.9 10.9-28.6 0-39.6L823 894h17.8c30.9 0 56-25 56-56V383.3c-0.1-30.9-25.2-55.9-56.1-55.9z m0 510.5H182.5V383.3h658.3v454.6z" fill="#4F4F4F" p-id="5562"></path><path d="M247.6 703.6c10.3 0 18.7-8.4 18.7-18.7V470.4H636v48.2c0 10.3 8.3 18.7 18.7 18.7 10.3 0 18.6-8.3 18.6-18.7v-66.8c0-10.3-8.3-18.7-18.6-18.7h-407c-10.3 0-18.7 8.4-18.7 18.7V685c-0.1 10.2 8.3 18.6 18.6 18.6zM247.6 788.2h407c10.3 0 18.6-8.3 18.6-18.7v-167c0-10.3-8.3-18.7-18.6-18.7s-18.7 8.3-18.7 18.7v148.4H247.6c-10.3 0-18.7 8.4-18.7 18.7 0 10.3 8.4 18.6 18.7 18.6zM493.1 284.7c5.5 5.5 12.6 8.2 19.8 8.2 7.2 0 14.3-2.7 19.8-8.2L703 114.4c10.9-10.9 10.9-28.6 0-39.6-10.9-10.9-28.6-10.9-39.6 0L512.9 225.4 362.4 74.9c-10.9-10.9-28.6-10.9-39.6 0-10.9 10.9-10.9 28.6 0 39.6l170.3 170.2zM758.2 545c30.9 0 56-25.1 56-56 0-30.8-25.1-56-56-56-30.8 0-56 25.1-56 56s25.1 56 56 56z m0-74.6c10.3 0 18.7 8.4 18.7 18.7 0 10.3-8.4 18.7-18.7 18.7-10.3 0-18.6-8.4-18.6-18.7-0.1-10.4 8.3-18.7 18.6-18.7zM758.2 585c-17.6 0-31.9 14.3-31.9 31.9 0 17.6 14.3 31.9 31.9 31.9 17.6 0 31.9-14.3 31.9-31.9 0-17.6-14.3-31.9-31.9-31.9z" fill="#4F4F4F" p-id="5563"></path></svg>