<?xml version="1.0" standalone="no"?><!DOCTYPE svg PUBLIC "-//W3C//DTD SVG 1.1//EN" "http://www.w3.org/Graphics/SVG/1.1/DTD/svg11.dtd"><svg t="1740460817480" class="icon" viewBox="0 0 1024 1024" version="1.1" xmlns="http://www.w3.org/2000/svg" p-id="3634" xmlns:xlink="http://www.w3.org/1999/xlink" width="200" height="200"><path d="M512 79.6c-20.4 0-40.6 1.4-60.3 4.1 6.9-0.4 13.9-0.5 20.9-0.5 220.3 0 398.8 176.2 398.8 393.5S692.9 870.2 472.6 870.2c-214.4 0-389.3-167-398.4-376.3-0.2 6-0.4 12-0.4 18.1C73.8 750.8 270 944.4 512 944.4S950.2 750.8 950.2 512 754 79.6 512 79.6z" fill="#FCC800" p-id="3635"></path><path d="M727.4 481v-1.4-3.6-1-3-1.2-3.5-1.2-3.6-0.8-3.2-0.9-3.5-1-3.5-0.7-3.1-0.9-3.4-0.9-3.4-0.4-3.2-0.7-3.3-0.7c0-1.1 0-2.2 0.1-3.3v-0.2c0-1 0-2.1 0.1-3.1 0.6-27.8 2.2-46.2 5.1-45 34.5 15.2 164.6 17.2 164.6 17.2s7.1-15 0-17.6c-7.1-2.6-120-23.4-127.9-77.2-7.9-53.8-43.7-60-53.8-73.2-10.1-13.2 41.1-114.2 34-107.6-179.4 165.8-194.4 316.8-197.7 368.2-0.7 10.3-0.9 16.6-1.8 18.2-5.7 9.7-36.6 19-36.6 19H347.1v-19h-17.6l0.5 219.4c-10.1 38.4-53 74-53 74l-2.4 19.6c11.9 6.7 24.2 12.9 36.9 18.4-0.1-1.3-0.3-2.6-0.5-4.1-7.9-50.3 18.5-55.1 18.5-55.1C432.3 714 476.4 653.5 477.7 650c1.3-3.5 86 1.8 94.9 13.7 8.8 11.9 53.2 7 53.2 7l-2.7 170.5c6.6-2.7 13.2-5.5 19.7-8.5v-53.4c9.7-45.4 95.3-122.2 91.3-127.9-2.2-3.2-5.8-90.5-6.6-165.7v-1.1c-0.1-1.2-0.1-2.4-0.1-3.6z" p-id="3636"></path></svg>