<?xml version="1.0" standalone="no"?><!DOCTYPE svg PUBLIC "-//W3C//DTD SVG 1.1//EN" "http://www.w3.org/Graphics/SVG/1.1/DTD/svg11.dtd"><svg t="1741746410936" class="icon" viewBox="0 0 1024 1024" version="1.1" xmlns="http://www.w3.org/2000/svg" p-id="2692" xmlns:xlink="http://www.w3.org/1999/xlink" width="200" height="200"><path d="M133.548122 625.483294a57.675294 57.675294 0 0 1 0 80.534588l-1.14447 1.144471a55.296 55.296 0 0 1-79.149177 0 57.675294 57.675294 0 0 1 0-80.564706l1.144471-1.114353a55.296 55.296 0 0 1 79.149176 0z" fill="#B2DDFF" p-id="2693"></path><path d="M396.655887 642.620235c21.805176 22.287059 21.744941 58.368-0.150588 80.564706L241.489769 880.338824a55.296 55.296 0 0 1-79.149176-0.150589 57.675294 57.675294 0 0 1 0.120471-80.534588l155.045647-157.214118a55.296 55.296 0 0 1 79.149176 0.150589z" fill="#53B1FD" p-id="2694"></path><path d="M607.057769 913.227294a55.386353 55.386353 0 0 1 77.613177-15.811765l3.373176 2.288942a57.584941 57.584941 0 0 1 15.510589 78.96847 55.386353 55.386353 0 0 1-77.613177 15.811765l-3.343059-2.288941a57.554824 57.554824 0 0 1-15.540706-78.968471z" fill="#B2DDFF" p-id="2695"></path><path d="M976.390475 622.049882a57.675294 57.675294 0 0 1 0 80.564706L900.283181 780.047059a55.296 55.296 0 0 1-79.149176 0 57.675294 57.675294 0 0 1 0-80.534588l76.107294-77.462589a55.296 55.296 0 0 1 79.149176 0z" fill="#53B1FD" p-id="2696"></path><path d="M977.534946 335.600941a57.675294 57.675294 0 0 1 0 80.534588L415.057769 988.461176a55.296 55.296 0 0 1-79.149176 0 57.675294 57.675294 0 0 1 0-80.534588l562.477176-572.355764a55.296 55.296 0 0 1 79.149177 0zM871.189534 159.623529a57.645176 57.645176 0 0 1 0 80.534589l-323.493647 329.185882a55.296 55.296 0 0 1-79.149176 0 57.675294 57.675294 0 0 1 0-80.534588L792.040358 159.623529a55.296 55.296 0 0 1 79.149176 0zM700.452593 47.977412c21.865412 22.226824 21.895529 58.277647 0.060235 80.534588L284.648358 552.237176a55.296 55.296 0 0 1-79.149177 0.060236 57.675294 57.675294 0 0 1-0.060235-80.564706L621.303416 48.037647a55.296 55.296 0 0 1 79.149177-0.060235z" fill="#1570EF" p-id="2697"></path><path d="M288.623887 183.597176c21.835294 22.287059 21.775059 58.337882-0.120471 80.534589L125.627181 429.296941a55.296 55.296 0 0 1-79.149176-0.150588 57.675294 57.675294 0 0 1 0.150588-80.534588l162.846118-165.135059a55.296 55.296 0 0 1 79.149176 0.12047z" fill="#53B1FD" p-id="2698"></path><path d="M388.343416 18.793412c30.900706 0 55.958588 25.509647 55.958589 56.95247v5.722353c0 31.412706-25.057882 56.922353-55.958589 56.922353-30.900706 0-55.958588-25.509647-55.958588-56.922353v-5.722353c0-31.442824 25.057882-56.952471 55.958588-56.95247z" fill="#B2DDFF" p-id="2699"></path></svg>