<?xml version="1.0" standalone="no"?><!DOCTYPE svg PUBLIC "-//W3C//DTD SVG 1.1//EN" "http://www.w3.org/Graphics/SVG/1.1/DTD/svg11.dtd"><svg t="1740460541641" class="icon" viewBox="0 0 1024 1024" version="1.1" xmlns="http://www.w3.org/2000/svg" p-id="2068" xmlns:xlink="http://www.w3.org/1999/xlink" width="200" height="200"><path d="M38 522.049c0-93.42 52.099-163.589 81.989-203.449 35.732-47.65 67.617-76.667 93.33-100.066 7.895-7.185 15.208-13.84 21.871-20.342l-22.831-25.95 112.087-18.684-12.454-33.216 120.389 20.76V111l72.65 42.558 11.415-21.798 107.38 106.383-59.602 98.668 92.141 73.107c-25.317 26.024-40.579 53.433-51.702 100.713-9.808 41.69-8.717 87.613 7.919 117.653-31.531-11.169-62.275-21.709-88.197-29.629-45.306-13.844-137.679-36.431-255.476-51.533-68.09-8.73-165.667-7.361-229.825-3.32-0.71-6.904-1.084-14.122-1.084-21.753z m6.5 51.473c5.203 19.723 13.166 37.811 22.56 57.517 33.079 69.397 38.018 74.351 67.281 103.709 8.379 8.406 18.752 18.813 32.352 33.307C230 835.525 323.465 910.422 479.084 929.983c177.026 22.253 258.777-22.227 313.327-51.907 3.975-2.162 7.806-4.247 11.519-6.221-4.534-8.862-6.183-15.945-8.101-24.182-4.521-19.418-10.536-45.251-59.36-115.948-12.233-17.714-26.852-31.112-41.689-42.008a18514.14 18514.14 0 0 1-30.522-11.009c-7.753-2.801-15.596-5.636-23.466-8.471-44.333-15.973-89.58-32.016-125.173-42.892-43.61-13.325-134.321-35.569-250.525-50.467-64.514-8.271-157.923-7.131-220.593-3.356z m647.768-173.413L943 395.412c-2.857-3.428-6.264-7.722-10.048-12.49-9.964-12.558-22.544-28.411-34.579-40.448-20.757-20.76-57.082-37.368-100.671-56.052-28.946-12.407-95.412-28.534-144.074-39.593l-50.072 82.892 88.712 70.388zM536 270c0-12.15-9.85-22-22-22s-22 9.85-22 22 9.85 22 22 22 22-9.85 22-22z m30 0c0-28.719-23.281-52-52-52s-52 23.281-52 52 23.281 52 52 52 52-23.281 52-52z" fill="#222222" p-id="2069"></path><path d="M791.487 400.25L723 586l110.5 37 6-15.5L810 594l5-8 29.5 11 4.5-16-29.5-10.5 4-8 30 8 9-19.5-64-28.5 35.255-123.041-42.268 0.791z m65.79-88.22c-9.15-4.878-19.127-9.679-29.77-14.523L839 268c-2.604-2.271-4.968-4.086-7.284-5.865-3.464-2.661-6.82-5.239-10.716-9.135-7.312-7.312-8.927-23.792-7-30 4.5-14.5 6-28-1.5-32-3.679-1.962-10.428-3.711-16.444-5.27-3.795-0.984-7.299-1.892-9.556-2.73l2-12c8.5 0.667 26.9 2.9 32.5 6.5 7 4.5 12.5 11.5 12.5 24 0 3.494-0.182 6.714-0.35 9.683-0.434 7.653-0.772 13.634 2.35 18.317 4.333 6.5 8.333 9.167 13 12l21.5-73-25.5-7 8-29 70 20-7 28.5-25-6.5L874 246c5.5 2.167 19.2 5.2 28 0 11-6.5 23.5-15.5 27-20.5 1.989-2.841 4.462-6.005 6.685-8.85 1.69-2.161 3.236-4.139 4.315-5.65l6 11c-5 12-15.5 28-23.5 34.5-8.858 7.197-21.5 16-32.5 18-5.035 0.915-14.028 1.219-19.065 1.389-1.274 0.043-2.296 0.077-2.935 0.111l-10.723 36.03z" fill="#C21A1F" p-id="2070"></path></svg>