<?xml version="1.0" standalone="no"?><!DOCTYPE svg PUBLIC "-//W3C//DTD SVG 1.1//EN" "http://www.w3.org/Graphics/SVG/1.1/DTD/svg11.dtd"><svg t="1740764504281" class="icon" viewBox="0 0 1024 1024" version="1.1" xmlns="http://www.w3.org/2000/svg" p-id="3728" xmlns:xlink="http://www.w3.org/1999/xlink" width="200" height="200"><path d="M512 0C320.096 128 256.096 128 64 128c0 640.096 0 640.096 448 896 448-255.904 448-255.904 448-896-191.904 0-255.904 0-448-128zM254.112 318.816h64.512v193.536c0 56.416 8.096 64.352 64.512 64.352 56.448 0 64.512-8.096 64.512-64.512V318.816H512v32.736a159.04 159.04 0 0 1 96.768-32.736 161.728 161.728 0 0 1 161.12 161.248v0.032a161.664 161.664 0 0 1-161.248 161.056h-0.032a160.192 160.192 0 0 1-114.496-48.32l-0.032-0.032c-19.808 32.864-56.096 48.352-110.944 48.352-88.704 0-129.024-40.288-129.024-128.992z m354.496 64.512h-0.416a96.16 96.16 0 0 0-96.16 96.16v0.64-0.032 0.416a96.16 96.16 0 0 0 96.16 96.16h0.64-0.032 0.416a96.16 96.16 0 0 0 96.16-96.16v-0.64-0.384a96.16 96.16 0 0 0-96.16-96.16h-0.64 0.032z" fill="#800000" p-id="3729"></path></svg>